<mxfile host="app.diagrams.net" modified="2021-12-26T16:39:24.596Z" agent="5.0 (Windows NT 10.0; Win64; x64) AppleWebKit/537.36 (KHTML, like Gecko) Chrome/96.0.4664.110 Safari/537.36 Edg/96.0.1054.62" etag="tNho3HbgVuadzV6bR2az" version="15.5.0" type="github">
  <diagram id="XfAZiI8CaQrhfZUaU5dn" name="Page-1">
    <mxGraphModel dx="2073" dy="908" grid="0" gridSize="10" guides="1" tooltips="1" connect="1" arrows="1" fold="1" page="0" pageScale="1" pageWidth="827" pageHeight="1169" math="0" shadow="0">
      <root>
        <mxCell id="0" />
        <mxCell id="1" parent="0" />
        <mxCell id="Dx7y4EGR-CTOSj1UD8kM-46" value="" style="group" parent="1" vertex="1" connectable="0">
          <mxGeometry x="-247" y="40" width="1270" height="830" as="geometry" />
        </mxCell>
        <mxCell id="Dx7y4EGR-CTOSj1UD8kM-35" value="" style="group" parent="Dx7y4EGR-CTOSj1UD8kM-46" vertex="1" connectable="0">
          <mxGeometry width="1270" height="380" as="geometry" />
        </mxCell>
        <mxCell id="Dx7y4EGR-CTOSj1UD8kM-28" value="" style="group" parent="Dx7y4EGR-CTOSj1UD8kM-35" vertex="1" connectable="0">
          <mxGeometry width="1270" height="380" as="geometry" />
        </mxCell>
        <mxCell id="Dx7y4EGR-CTOSj1UD8kM-23" value="" style="rounded=1;whiteSpace=wrap;html=1;fontSize=30;fillColor=none;" parent="Dx7y4EGR-CTOSj1UD8kM-28" vertex="1">
          <mxGeometry y="30" width="1270" height="350" as="geometry" />
        </mxCell>
        <mxCell id="Dx7y4EGR-CTOSj1UD8kM-12" value="작가사진 labeling" style="rounded=1;whiteSpace=wrap;html=1;fontSize=35;" parent="Dx7y4EGR-CTOSj1UD8kM-28" vertex="1">
          <mxGeometry x="510" width="301" height="60" as="geometry" />
        </mxCell>
        <mxCell id="Dx7y4EGR-CTOSj1UD8kM-16" value="" style="shape=singleArrow;whiteSpace=wrap;html=1;fontSize=35;gradientColor=#b3b3b3;fillColor=#f5f5f5;strokeColor=#666666;" parent="Dx7y4EGR-CTOSj1UD8kM-28" vertex="1">
          <mxGeometry x="811" y="175" width="100" height="60" as="geometry" />
        </mxCell>
        <mxCell id="Dx7y4EGR-CTOSj1UD8kM-18" value="" style="image;html=1;image=img/lib/clip_art/computers/Database_Add_128x128.png;fontSize=35;" parent="Dx7y4EGR-CTOSj1UD8kM-28" vertex="1">
          <mxGeometry x="987" y="120" width="120" height="120" as="geometry" />
        </mxCell>
        <mxCell id="Dx7y4EGR-CTOSj1UD8kM-19" value="DB 업데이트" style="text;html=1;resizable=0;autosize=1;align=center;verticalAlign=middle;points=[];fillColor=none;strokeColor=none;rounded=0;fontSize=30;" parent="Dx7y4EGR-CTOSj1UD8kM-28" vertex="1">
          <mxGeometry x="944" y="250" width="190" height="40" as="geometry" />
        </mxCell>
        <mxCell id="8YiQ8sACHnzhZr1-1O1K-35" value="" style="shape=image;verticalLabelPosition=bottom;labelBackgroundColor=#ffffff;verticalAlign=top;aspect=fixed;imageAspect=0;image=data:image/png,iVBORw0KGgoAAAANSUhEUgAAAMMAAADYCAYAAABWblfyAAAgAElEQVR4nO2deVCb553Hv68khBCHDpA4hLhvYYNlML4I8R07rRs3cZK2m3ayburMttlkp93OTrbTcWe7M5lOd7PZpk3atBtvnTh2nMa108SMbwcH2xhjsDiMQAjEJRAIgW4kve/+YcTaiW1AeoVewfuZ4R9G7/P8Xun9vs/1OwiKoiiwsLCAE24DWFiYAisGFpYZWDGwsMzAioGFZQZWDCwsM7BiYGGZgRUDC8sMrBhYWGZgxcDCMgMrBhaWGVgxsLDMwIqBhWUGVgwsLDOwYmBhmYEXbgMiGa/Xi7GxMYyOjsJsNsNut4MkSQgEAojFYshkMiQlJSEuLi7cprLMA1YMC8Dn88FsNuPWrVu4du0a2tra0N/fj4mJCbjdbvh8PgAAQRDg8/mIj49HWloa8vLyUFlZiYqKCqSnp4PP54f5TljuB8EG98yNx+NBT08PLl68iLq6OrS3t2N8fBwWiwUulwsejwdf/hoJggCXy0V0dDTi4+ORmJiIjIwMVFVVYcuWLVi5ciUSEhLCdEcs94MVwxz09fXh4sWLOHv2LG7evAmDwQCr1RpQW3w+HykpKSgqKkJNTQ127NgBlUoFgUBAs9UsgcCK4QG43W40Njbi5MmTOHv2LLRaLWw2Gy1tc7lcZGRkYMOGDfj617+OmpoaJCcn09I2S+Cwa4b7YLPZcOHCBRw+fBgXLlzAyMgIre37fD7o9XqYTCb09vZieHgYu3fvRnZ2Nq39sCwMVgx3QVEUHA4Hamtr8bvf/Q7Xr1+nbTS4HzabDVeuXMHo6CgmJyfx3HPPsYIII+w0aQaKouB0OnH+/HkcOHAAra2tcLvdi9a/QqHAvn378A//8A+Qy+UgCGLR+ma5A3voNoPb7UZzczN+9rOf4datW4sqBAAYGhrC22+/jffffx9Wq/Uru1MsoYcdGXBnDt/d3Y2XXnoJ586dA0mSYbGDw+EgMTERf/rTn7BlyxYIhcKw2LFcYUcGAMPDw3j33Xdx9uzZsAkBAEiShNlsxquvvore3l54vd6w2bIcWfZisFqtuHr1Kg4ePMiIqYnP58Pt27fxxz/+EUajMdzmLCuW/W6STqfD0aNHYTKZwm3KLF6vF8eOHcPmzZshkUgQGxs7r+tIkkRnZyc0Gg3GxsYAYM6FOEVRIAgCUqkUZWVlKCoqCtr+SGVZi2FiYgINDQ24dOlSWKdH92N4eBiffPIJ8vPzUVhYOK9r6urq8O677+L69esL2gAgCALR0dFYuXIlXnnlFaxZsyZQsyOaZS2Gnp4eXLp0afYtyiR8Ph/OnTuHxx57DBkZGYiJiXno551OJ06dOoXTp09jeHh4wf0RBIHx8XFkZmaisrJyWW7tLts1g9vtRnt7OxoaGhixVrgfBoMBjY2N81o72O126HQ6mM3mgPqiKApWqxWtra2MGyUXi2UrhpGREbS2tqK/vz/cpjwQj8eDhoYG9PX1zSlYj8cDj8cT1INMkiTcbjcrhuWGXq9HR0fHoh+uLZSOjg7o9fo57SQIYvYvGJbj9MjPshQDSZLo7e2FTqcLtylzMjo6GtT0h2X+LEsxuFwuDAwMRMQ+vsfjgcFgoN1zlk4oilqUv1CzLHeTLBYLhoeHMTU1FW5T5sXQ0BBGR0fDbcZ9oSgKNpsNTqcz5A9sVFQUYmJiEB0dDQ6H/vf4shTDxMQEzGZzxLg7mEwmTExMhNuM++LxePDb3/4Wn332GRwOR0jWHH6RJScnY8+ePdizZw8SExNp72dZimFqagp2uz3cZswbq9UKu90+e1rMJCiKQl9fH1pbW0Ma+wHccWTs6+uD2+3G/v37wePR+/guSzHY7XY4nc5wmzFv3G43HA4HvF4voqKiFq1fq9WKgYEBuFyue/4fHR0NmUwGmUw2+z+v1wuPxxNym3p6etDS0oLx8XHaQ2WXpRg8Hk/ETJGAOw+a1+td9P3/zs5O/PrXv0Zvb+89/1cqlXj66aexd+/eRbUHuPPb2e32kGyJL0sxRBoURYEkyUU/KZ+amsKtW7fQ0dFxz//NZjNqamoW1RY/odxdWpZbqxwOh3Fz74fB4XDA5XJDsoMSKEx1YQkG5ny7iwifz4+orHZRUVHg8/ngcrnhNmWWSHqZzJdlKYa4uLg5vUCZRExMDIRCIaNGhqXIsvx2RSIR4uPjI+btJhKJkJCQEDH2RirLUgwSiQRJSUmIjo4OtynzQi6XQyKRhNuMJc+yFINIJEJaWhpEIlG4TZkTgiCgUCjY9JOLwLIUA5/PR3p6OhQKRbhNmZOoqChkZWWxYlgElqUYACA3N3fescXhRKlUIi8vLyJGsUhn2YohKysLJSUljE/UVV5ejqysLNr9cObDgw63KIqaLcyylFi2J9BisRilpaUoKipCU1NTuM25LwKBAGvXrkVmZmZY+k9ISIBKpbqnDBdFUUhPT0dKSkpYbAoly1YMPB4PxcXF2LhxI1paWhj5pluxYgVWrVoFqVQalv7z8vLwk5/8BA6HY/Z/FEVBKBRCqVSGxSYej4fY2NiQjOjLVgzAnfl4dXU1amtrodVqw23OPfD5fOzatQsFBQXz9lT98rTGfy4RqOuERCLB2rVr5+xzsV4kHA4H+fn5UKvVISkBtqzFIBQKUVZWhl27dqG3txfT09PhNmmWsrIybN26FXK5fF6fpygKHA4HMpkMycnJSE1NRXx8PKKiouByuWCxWNDf34+BgQE4HA7afIu4XC5KS0uxbdu2r7h6001cXBzWrVuHrVu3huSMaFmLAQDS09Pxta99DZcvX0ZjY2O4zQFBEBCJRPjOd76DoqKief/oUVFRqKioQEFBAVQqFXJyciCVShEVFQWn04nR0VHcvn0b169fR1NTE3Q63T3Tn0Dhcrl4/PHHUVlZGXIX84SEBCgUitBNGykWymQyUW+++SYlk8kogiAoAGH5IwiCEggE1N69eym9Xk95vd5534PT6aQGBgaoycnJh35ucHCQ+uMf/0jt2LGDkkql99xvTEwMtX37dmp6ejrYrzQiYcVAURRJktTQ0BC1f/9+Ki4uLmyCiI6OptRqNdXQ0EC53e6A78XhcFCjo6OUwWCgent7qYGBAWpiYoLyeDyzn6urq6OeffZZSiKRsGKYYdlPk4A7UxO5XI5XX30VfX19uHz58mzM8WIRFRWF7Oxs/PznP4darQ7IXdvj8WBiYgIajQb19fXo7OyE0+lEUlIS1Go1ampqkJ6eDqFQiI0bN4LH48Hn8+HkyZOMT6a2KIRbjUzC5/NRPT091NatWymhULhoIwKHw6EKCwupQ4cOBWw7SZLUjRs3qO9///uUXC6/bx95eXnUO++8Q42Njc1ed+LECWrDhg3syECx06Sv4PV6qY6ODupb3/rWPVOIUP1FRUVRVVVV1JEjRyin0xmw3ZcvX6Z27txJxcXFURwO5759cblcSiKRUL/85S+p/v5+iqIoamxsjHrttdeohIQESigUUjt27FjQWmUpwT1w4MABesaYpQGHw4FIJMKqVavA5/MxODgYspxFUqkUX/va1/DjH/8YmzZtmndRki8zODiIX/ziF7h48SJsNtsDp3cURcHtdqOrqwsZGRnIysqCWCyG2+1GT08PzGYzNm/ejF27dgVzWxELK4b7wOVyIRaLUVhYiOzsbJAkibGxMdrSy/D5fKjVauzbtw/PP/88ysvL73F5WCiHDh3CX/7yF4yOjs5rnePPb1RYWIiMjAwQBAGXywWhUIj9+/dHhDdvKGCrfc6B2WzG7du3UV9fjwsXLuDGjRsB5z0VCoUoKSnBI488gpqaGqxatQqpqakBO+FRFIXJyUl8+9vfxueff76gxGhpaWk4cOAAvvOd74AgCAwNDcFisUClUkEgEARkT6TD7ibNgVQqRVVVFXJyclBRUYGWlha0tLRAq9XCYDBgYmICDofjKwdOHA4HfD4fCQkJSE1NRW5uLkpLS1FWVoaVK1dCoVAEHYft8/nQ2NiIjo6OBY9ao6Oj6Onpwfj4OJRKJXJzc4OyZSnAimEecLlcpKSkQC6Xo6KiAn19fejq6oLBYMDg4CBMJhMcDgemp6dBURR4PB6EQiHEYjFSUlJmH7bc3FxIpVLa3LE9Hg8+/fRTmM3mBZ/+er1emEwmTE5Ohs3pjmmwYlgAHA4HcXFxUKlUUKlUIEkSU1NTmJychM1mg8vlAkVR4PP5iI2NRXx8PEQiUUj8aHw+H4aHh3Hu3LmA1zLT09OLkhIyUmDFEAQcDgdisRhisXjR+3Y6naivr0d3d3fAD3R0dHRE5Y8KNctWDD6fD263G06nE263Gz6fDwRBgMfjQSAQICYmBnw+n5HpWfwL508++SRgIURFRUEul4dFyExl2YnB6/XC5XLBZDJBq9Wira0NfX19mJycBI/Hg1QqRUFBAVasWIHMzMzZaQ6TEnhNT0/DYDDg4sWLAccSyOVy5OfnIykpiWbrIpdlJQZ/Lbfjx4/j448/fmhNgaSkJDzyyCP41re+hZqaGiQlJTFmlLBYLLh06VJQ1XzUajUKCgoiJnfUYrBsxECSJI4cOYLf//73aGlpgd1uf+hb1Ww2429/+xuuXLmCnTt34oUXXpgz6msxoCgKJpMJp06dCrgNHo+HDRs2ICcnh0bLIp8lLwaKouB0OvFf//VfOHz4MHQ6Hdxu95wntSRJYnp6GiMjI/jLX/6C4eFh7N+/H7t37w7rCGGz2dDW1obm5uaA28jPz0dZWVlISkFFMktaDCRJwmQy4fXXX8dHH30Eg8Gw4AUnSZKYnJxEXV3d7BnC448/HiKL52Z4eBh1dXVBlYyqrq5GVlbWolYBigSWrBi8Xi8MBgN+97vf4ejRoxgeHg4qcN1ms+HKlSsQCoXIzMxEaWkpjdbOD6/XOxtvEWiIZXx8PKqrq5dkqpdgYc4WCY14PB50d3fjrbfewuHDhzE4OEhLBofJyUnU19fj8OHDIQ9+vx/j4+NoaWlBd3d3wG2sWLECKpUK8fHxNFq2NFhyYvB6veju7saf//xnvP/++xgeHqY1Ym18fByfffYZWlpaFr3GWm9vL65duxZwpVKCILBt2zakpqYyqvAJU1hS0ySSJKHX6/Hhhx/ivffew/Dw8Lyv9btaCIVCcLlckCQJh8MBh8NxzzrD4/HAYDDgr3/9K8rLyxdta9LlcuH27du4ceNGQNcTBAGZTIaamho2b+sDWDJioCgKQ0NDOH78OA4dOoT+/v45ryEIAkKhECkpKVAoFMjJyUFycjL4fD48Hg9MJtM9zniTk5OYnp6G3W7H6dOn8fLLL0Muly/KgdzQ0BBaWlowMDAQ0PVcLhdVVVUoLCxcti7ac7FkxGCxWHDy5EkcOnQIOp1uzs9HRUUhMTERq1atwq5du/Doo48iOzv7nmgzh8OB/v5+NDU1ob6+Hs3Nzejv78fk5CT0ej06OzshkUhCPjpQFIX29nY0NTUF5H5BEAQEAgF2797NVgB6CEtCDG63G7W1tTh06BBaW1vn/DyPx0NmZib27t2L559/Hvn5+QD+/2yBmslOJxAIUFhYiMLCQnzzm9/EwMAArly5gnPnzqG5uRl6vR6rV68OuRgcDgc0Gg3a2toCup7L5SI1NRWbN2+OqFp2i03Ei4GiKFy7dg3/8z//g4aGhnldk5mZiZdeegnf/e53IRaLQVEUvF4vLBYL9Ho97HY7RCIRlEolxGIxuFwu+Hz+bEzCM888g8HBQXg8nkVZM3R3d6OlpQVjY2MBXR8TE4NNmzZBoVCwC+eHEPFi6Ovrw29/+1tcvXp1Xrs7iYmJ2L9/P5555hmIRCJMT0+js7MThw4dwunTpzE4OIjp6WkIBAIolUqsW7cOW7ZsQWVlJdLS0kAQBKKiopCRkQGKohbl4bpx4wba29sDvj4hIQF79uwJS42HSCKivx2n04k333wTX3zxxby2GwmCwDe/+U1s374dSUlJmJqawtmzZ/Hf//3f0Gg0sNls8Hq9oCgKVqsVFosFOp0OJ0+eRGZmJiorK1FdXY01a9YgLS1tEe4QGBsbw40bN6DX6wO6PiYmBkVFRaiqqmKU5y0TiWgxfPjhhzh16hRGRkbmdZaQk5ODnTt3Ij8/H9PT0zh//jzeeOMNNDY2fiVajKIoTE9PY3p6GpOTkxgZGUFnZydqa2uRkZGB1atXY926dSgvL0dycnLI3rotLS3o6OgIOEmwRCLBpk2bIBKJ2IXzHESkGHw+H9rb2/Huu+9Cr9fD6/XO67rq6moUFRVBKBSisbERJ06cwI0bN+YMm/TnGxodHYXJZIJOp4NGo8Hp06eRk5ODsrIyqNVqqFQqJCcn0+bz4/V6ceXKFfT09AR0wOdfOG/bto0dFeZBxImBoihYLBb8/ve/x82bN+cd/8vn87F27VrI5XI4nU5cu3YNly9fXvAb1y+MwcFBDA4OQqPR4Nq1a8jMzERhYSFKS0uhUqlQUFCAlJSUoEaM/v7+oFLTJCQkYMWKFSguLg7YhuVExInB4XDg/PnzOH78+ILcEsRiMfLz8xEXFwej0YjW1tZ5HczNhcvlQm9vL3p7e3H9+nWkpaUhPz8fxcXFKC0tRX5+PnJzcyGXyxe82L527Rp0Ol3AflCpqamorq5m/ZDmSUSJwePxQK/X409/+hOMRuOCpg4ymQyJiYmzKSP9u0Z04nA40N3dje7ubly4cAFKpRIqlQorV67EihUrkJWVBaVSOVtE5GE4nU5cunRpQS4ld8Pn85GTk4P169cHdP1yJKLEYDabcfr0aVy8eHHBc2h/LDNBELOpXUKJy+VCV1cXurq68Le//Q1ZWVlYvXo1KioqsHLlSiiVSshkMiQkJNw3Q0VXVxdu3rwJi8USUP8ymQzl5eVsNNsCiBgxuN1u3L59G++9915AtQTu3kmhHlDfOFT4PWm7u7tx/PhxZGdnY82aNVi3bh3KysqQnp4OkUiE2NhYEAQBq9WKkydPwmAwzHtz4G4IgkBOTg7Wrl3LpoJZABEjhqGhIdTW1gYc7mi1WmddLUQiUdjm0f5Dvs7OThw7dgxZWVlYt24dHn300Vkv2CtXruB///d/YTKZAupDIBCgqKgIq1evptn6pU1EiMHj8aC1tRUfffRRwG/0kZERWCwWeL1eKBQKJCcng8vlhrX+s98t2z/iJSUlQSgUore3Nyi7MjIysGrVKjaabYFExOZzT08Pzp49i56enoDbGB8fh06ng81mg0KhwIoVKxbtFHk+eDwejIyMQK/XBy1QlUrFjgoBwHgxeL1etLS04MyZM0FFlvkPsEZHR8Hj8bBx40bU1NQw6lSWJMmgo+fEYjFWrlyJgoICmqxaPjBeDHq9HvX19UGNCn4uXLgArVYLt9uNoqIiPPXUU6iurqbBSuZQXFyMlStXIiEhIdymRByMXjOQJImbN2+ivr6elmqUBoMBn376KXJycqBSqbBx40Z4vV7Ex8fj4sWLAccWMwUulwu1Wo2SkhLW/SIAGC2GkZERXL9+HZ2dnbS0Nz09jdraWuTk5EAkEiE9PR1btmyBVCpFZWUlGhsb0d7ePnsgF2lFjVJTU7Fq1Sqkp6eH25SIhNFi0Gg0aG5uhtVqpa1Ng8GADz/8EEKhEE888QTS09NRXV2N4uJiPProo7h9+zZu3bqFzs5O6HQ6GI3GsKSFCYTy8vJZR0SWhcNYMTidTjQ0NOD27du0vqEpikJzczMOHjwIu92OnTt3Ijc3FykpKUhJSUF1dTUGBwfR3t6OW7duQaPRoLu7GwMDAzCZTIwVhkAgwLp165CVlcWoTYFIgrFi6OvrQ0tLS8Aemw/D5/Phxo0bGB0dhVarxY4dO1BUVITk5GRIpVKkp6dDqVRi8+bNGBoagkajQWNjI27dugW9Xo+RkRGYzWZa1jF0kZmZiVWrVkEmk4XblIiFkaVvKYpCbW0tPv30UwwNDYWsn6mpKWg0mtkKOJOTk/D5fLP7/Hw+H1KpFIWFhVi/fv3sdEoikYDH44HL5YIgCPh8vkVPKHY3BEHgG9/4Bh5//HEkJyeHzY5Ih5Glb10uF/75n/8ZH3zwAcbHxxetXw6HA4VCgXXr1mHz5s2orKyEQqFAXFwcoqOjZ2MTfD4fRkdH0dDQgLNnz+Lq1asYHByE1WqFy+WCz+db1MW3UCjE22+/jd27d7MJwoKAkWLo6OjAD3/4Q1y6dCmsb9zMzExs2LAB27dvx/r165GRkQEejwcOh3PPvHxgYAD19fU4ffo0vvjiCxgMBkxPTy+aKNavX4+3334bpaWl7HohCBgphoMHD+JXv/oVOjo6wmoHh8MBl8tFdHQ0FAoF1q5di23btmHDhg3IyMiY3csnSRI+nw8ejweDg4NoaGjAmTNnUFdXB71eH1JBcDgcvPXWW3jqqacglUpD1s9ygHFiIEkSP/rRj3Ds2LGA8wSFAn/hQ6lUig0bNuAPf/gD4uLivvI5f804m80Go9GIpqYmXLx4EfX19ejr6wvIJftBREVFYc+ePfjVr34FpVLJHrQFCeN2k4xGI9rb2zE1NRVuU+7B6/XCZrOBoijY7fYHJg/j8XiIi4tDbGwsEhMTkZmZiZqaGhiNRty8eRNXrlxBY2Mj+vv7A67fDNzZSl27di1++tOfIjU1lRUCDTBODG1tbTAajYwt1h0dHT2vQH9/sjGJRAKJRILMzEwUFBSgpqYGvb29aG1tRVNTE27dugWDwbCg8wuRSIRNmzbhpZdeQmlpKVuBhyYYJ4YbN25gamqKsa4QAoEA6enpC16o8ng8yGQyyGQyFBYWYvXq1di8eTO6u7vR3t4OjUaD9vZ29Pf3PzA2Oy4uDoWFhdiyZQt2796NyspKNpKNRhglBr+7NpMd5gQCATIyMoJqg8/nIy0tDWlpaSgvL4fJZEJPTw9u374NjUaD3t5emEwmOBwOEASBuLi42brNarUalZWVyM3NpemOWPwwRgwkScJsNkOr1QY1lw41MTExUCqVtLUXHR2N9PR0pKenY/369bMBPkNDQ7DZbCAIAiKRCAqFAllZWUhKSmKTB4cIRomhp6cHIyMjtO640AmXy0V8fDwUCkVI2ufxeFAoFCFrn+XhMGYLwp8y0ul0Mna9wOfzkZSUBLlcHm5TWEIAo8TQ1tbG2F0k4M4UKTU1lY0iW6IwZprk8/lw+/ZtRoshLi4OSqWSljm7P96Zoqh7XE4IggCHw5n9Y1k8GCEGkiRht9thMBjCmrplLhISEpCVlRV0Oy6XC319fWhra4NWq4XRaITD4QCfz4dcLkdeXh5WrFiB/Px8thjhIsIYMZjNZoyMjCxpMZhMJpw+fXo2GdrY2NisQx9JkiAIYrZklkgkQmlpKXbs2IFt27YhMzOTHSlCDCPE4PV6YTQaYbPZwuql+jB4PB4SExMD2lb1eDyora3F+++/j+bmZhiNRtjt9ofumplMJgwPD6OpqQmfffYZnnzySWzfvp2NVwghjBHD8PAwY7dUgTsxA6mpqUhKSpr3NT6fD8PDwzhy5AiOHj0KrVY7b8GTJAmr1Qqr1YqxsTH09fWhs7MTzz77LEpLS4O5FZYHwBgxzLcUVbgQi8VQKpXzDrb3l6s9evQoPvnkE+h0uoDvz2azQaPRwGKxYHJyEvv27UN5eXlAbbE8GMaIYXR0lNFi8HugzmfePjY2hrq6Ohw7dgxnz54NOIHw3fh8PvT19eHjjz8GQRB4+eWXWZcMmmGEGHw+Hy0PTCiRyWRzLp79D+yZM2fw4Ycfor6+ntZsGhRFYXh4GMePH4dMJsMrr7yCuLg4NrqNJhgjBovFwtiRgcPhQCKRPDRRscPhQGdnJ/7617/io48+Cqpu88OgKApGoxHvv/8+KisrsW3bNtZXiSYYIQb/YpHJ8Hi8B8YwWCwWNDU14c9//jNOnTqF0dHRkNri9XrR39+Pt956CxUVFZBKpey2Kw0w4hskSZLRnqokSc56k969E0RRFCYmJvDZZ5/h5z//OY4ePRpyIfhxOp24cOECvvjiC0blb4pkwi4GiqLg8/kY/4PeunULx48fh8lkmi2WbrFY8Jvf/AY//elPaV8fzAVFUXC5XPjggw8YP6pGCoyZJnk8HsauGYA7h2CHDx+GTqfD1q1bQVEUTp06hatXr87GRi82Xq8Xly5dwtDQECQSCRv+GSSMEIN/dGAyFEXBbDbj/PnzuHLlCoA7i2a32x02EVMUBZPJhObmZmRlZUEsFofFjqVC2KdJABg9ItyNf21jNpthNpvhcrnCbrvP58PVq1cZl00kEmGEGPxuyyyB0djYiPHxccb6dUUKjHgCORzOnKlXWB5Md3c39Ho9HA5HuE2JaMIuhrvdltmT1MCYmppCa2srLBZLuE2JaMIuBuDOyBATExNuMyIWiqLQ1NTEqHSckQhjxHC/vKUs86etrQ3Dw8OMDptlOowQA5fLRUJCAjtNCoKBgQF0dXWxu0pBwBgxJCYmhtuMiMblcqG9vT0kZb+WC4wRg1wuZ0eGINFoNBgcHAy3GRELI8TA4/GQnJzMiiFIurq6FpzRm+X/YYwYUlJS2IO3IDGbzejs7GSnSgHCiKePx+MhNTUVMTEx7OgQBD6fD1qtFgaDIdymRCSMEAOXy0VSUhKbYZoGtFrtV+IuWOYHI8TA4XBms1uzYgiOwcFB6HQ6TE5OhtuUiIMRYiAIAnw+H3l5eayPUpDYbDbodDr09/eH25SIgxFiAO5MlUpKStgAlSAhSRJ6vR7d3d3hNiXiYJQYVCoVBALBkl5E+4sexsXFhWxKaDAYoNVqH1gbjuX+MEoMhYWFEIvFS3aLNT4+Hmq1Gt/4xjewdetWpKenh+Rex8bG0NXVxTruLRDGPHUcDgepqanIysp6YI3lSIUgCIjFYmzduhWvvfYa3nzzTbzxxht48sknQ+Kg6E9539XVRXvbSxnGiAG4U+yvtLR03vlMIwEulwuxWIx9+/bhN7/5DR555NgIAScAAAzkSURBVBHExsYiIyMDVVVVyMvLC0m/g4ODaG1tDUnbSxVGiQEAKisrER8fH24zaIHH4yE3NxdvvPEG/v3f/x1paWn3TIuys7NRUFAQkr6NRiPa29sZn4KHSTBODOXl5UhMTIz48waRSIRdu3bhnXfewZNPPono6OivbAxkZGSgoKAgJIXNrVYrdDodent7aW97qcI4MSiVShQUFER0sE9WVhZ+8IMf4Je//CUqKysfOO2TSqXIy8tDamoq7Tb4fD4YjUbcunWL9raXKowTg0AggFqthlQqDbcpCyYqKgrr1q3Dj3/8Y7z44osoLi5+aDhrVFTUrPhDwdjYGG7evBn2dDaRAuPEQBAEqqqqIs6lWyqV4oknnsArr7yCp556Cjk5OfM6TVcoFFCpVCG514mJCbS1tWFiYoL2tpcijBMDABQXFyM/Pz9ipko5OTl47rnn8MMf/hCPPfYYUlJS5n2tXC5HSUlJSDYNXC4XDAYDOjs7aW97KcJIMUilUqjV6gU9VOGAy+Vi9erVeOGFF/Diiy9i/fr1Cy6YHhcXh+zsbFpK6n4ZkiQxPj6OxsZG2tteijBSDARBYM2aNcjOzmbkrhKHw4FIJEJNTQ1efvllvPDCCygsLAzIr4rL5SIlJQUrV64MgaV3cio1NDSwWTPmASPFAAAlJSVQqVQLftOGGh6Ph7S0NOzatQv/9m//hqeffhqJiYlBzfmTkpKwatWqkHjsOhwOtLW1Mb6AJBNgrBjEYjGqqqpQUFDAmIV0dHQ0cnNz8Xd/93f4j//4D6xbt44W1xGxWIySkpKQ7KB5PB4YjUY0NzezAT9zwFgxAMCGDRuwZs0aCASCsNpBEAQEAgHKysrwL//yL/jFL36B1NRU2kQqEAigVCpRXFxMS3tfxul0oq6ujtF1tpkAo8WgUCiwY8cOVFVVhdWO2NhYfP3rX8frr7+O7373uyE5MRaLxVi7di3t7QJ3xOAvd8VOlR4Mo8VAEAQ2bNiAp556ChkZGWGxITo6Gnv37sWrr76KioqKkLmXJyQkoKKiIiTBTR6PB1qtFjqdjh0dHgKjxQDceUh27tyJ733ve2FZTCcmJmLVqlUoLi4OyYjgJyYmBoWFhVAqlbSvkUiShM1mw7Vr19icSg+B8WLgcDhQKpXYs2cPnn322UWPkXa5XLDZbCHfmuTxeEhKSkJFRUVItpO9Xi/q6upYMTwExosBuOPDU1hYiG9/+9t47LHHFrVvq9WKS5cuoa6uLuR152JjY7Fx48aQTMV8Ph8aGxthMpkYXz8vXHAPHDhwINxGzIeoqCgkJiYiMTERnZ2dMBqNi9IvSZKYmJjA9PQ0lEolFApFyPryF275+OOPaa8XR1EUHA4HampqkJGREdIpX6QSMWIA7ixmU1NTERsbC41GA6vVuii7I06nc/aNmp+fHzKPWv8W7pkzZ2A0Gml/g3u9XuTk5KCsrGzJBFDRSUSJAQD4fD5yc3Nht9uh1WrhcDgWRRBWqxUmkwl8Ph/FxcUhCU31jwydnZ3QaDQhiVKLjo7Go48+CplMxpjDTKYQEWuGuyEIAgkJCfjRj36EHTt2QCKRLNqP2tvbi/feew+nTp2C0+kMSR9cLhfV1dUQCoUhuS9/hR82jcxXiTgxAHcEIZfL8ZOf/ARVVVWIjY1dlH5JkoROp8Prr7+OxsbGkOww+T1hZTJZSHaVRkdH0d7ezqafvA8RKQY/JSUl+Kd/+ieUlZUtWia+6elpdHR04Gc/+xkGBwdpn9dzOBwoFAqUlJSEZCpGkiRu3rzJ5lS6DxEtBgDYvHkzfvCDH0ClUi1any6XC1evXsW//uu/YmxsjPY1C5fLRVVVVcgWuTdv3oTJZGJdM75ExC2gvwxBEMjNzYXH44Fer4fZbF6UfkmSRHd39+yCmu6oPJIkcebMmZC8we12O6qqqpCfn7/kErYFQ8SPDMCdw6q9e/fiySefhFwuX5Q+KYqC0+nEO++8gxMnTsBkMtHaflFRETIzM0PisetwONDR0YHR0VHa245kloQYCIKAQqHAtm3bUFlZuah9G41GvP3227hw4QKti1KxWIzS0lKIxWLa2vRDkiRaW1sxNDREe9uRzJIQA3Bnnp2ZmRmSWOKHQVEU2tracPDgQVod4bhcLtRqdchKAnd2dqK/v5/dYr2LJSMGAHC73WFxRPN4PLh8+TI++OADtLS00BZRtmLFCqSmpobEOdFoNKK7u5tNI3MXS0IMFEXBYrHg+vXrYUu2a7VaUVtbi2PHjkGr1dLSZmZmJnJyckKSMsfpdEKr1WJgYID2tiOVkPlDkyQJq9UKo9GIiYkJOJ3OkHlL+nw+6PV6nDhxAhqNJiR9zAej0YgTJ05AIpHg7//+74NOGxkXF4eSkhLI5XJYLBaarPx/tFotent7oVarWdcMhEAMPp8PVqsVvb29aGlpQWNjI3Q6HcbGxkIWE+DxeDAyMoKJiYmwuyd3d3fj2LFjkMvleOaZZ4IOSFKpVFAoFOjq6qL9XKCvrw89PT1wOp1LqgxAoNAqBn8mhrq6Ohw6dAiff/45HA4HnV1EBK2trTh48CAUCgW2bt0alLu0P/otKiqK9sXu+Pg4uru7YTQakZOTQ2vbkQhtawb/VOWdd97BK6+8gtra2mUpBODOd9HU1ITXX38dWq02qDd6SkoK8vPzQ7Kr5P/N2GKId6BNDH19ffjDH/6A//zP/6T9ACoScblcaGhowIEDBzA1NRWwIHg8HgoKCkKWEKG3t5e2BX+kQ4sYLBYLjhw5giNHjizb0eB+WK1WfP7553jttdeCWi8VFhYiKysrJIvc4eFhaLXakCzQIw1axHD+/HnU1tbCaDSyzl93QVEUzGYzDh8+jMuXLwd8BpKRkYHc3NyQuKo7HA7o9Xr09PTQ3nakEbQYRkZGcP78eWg0mrDv5DARfwWdgwcPYmpqKqA2EhISkJeXh/T0dJqtu7MFPjAwgLa2NtrbjjSCFkNzczM0Gk3AP/RywOPx4Ny5c9DpdAGFcnK5XGRnZ4esMqjRaERbW9uyd80ISgwURaG5uRn9/f1sUtuHQFEUjEYjbt68CbvdHlAbmZmZKCgoCIlrxsTEBLq7u5d9wE9QYnC5XNDpdKx/yzwgSRIajQY2my2g6+VyOfLy8kKSmWN6ehqjo6PL3jUjKDFMTU1hdHQ0ZMHxSw2DwRBwxguhUIjs7OyQHI5RFAW73b7s4xuCEoPD4Qipz9FSw2KxBJz41x+zEarwVo/HE/AUbqkQ9JrB/8cyNyRJBn0aXVJSEpJseARBLHtnvaDEEBMTA4FAwMi6a0wkISEhqAWwRCJBQUEB0tLSaLTqDnw+HyKRiPZ2I4mgxCAWi5GYmMgGlc+T9PT0oL4rHo+H1NRUlJaW0mjVHWJjY4N2OY90ghKDQCBAdnY2JBIJXfYsaVauXBn0KbJcLodarabJojsIhUIolcqwFYRhCkGJgSAIqNXqkGamXgoQBAGJRILVq1cHnQspMTERarWa1i3WtLQ0lJeXM66y6mIT9Am0Wq2GSqUKSWjiUoHH42Hr1q3Izs4OevErEAhQUFCATZs20WIbl8tFUVERqqurQ1aiK1II+u7lcjk2b96MkpISOuxZcnA4HMhkMnzve9+DVCoNesfGn37ymWeegVwuD7q9nJwcbNq0if39QIMYeDweHnnkEezcuRNKpZIOm5YMBEFAJBLh2Wefxfr162nbaIiLi8P69evx3HPPITY2NmBBJCYmYvv27dixYwc7soOm9JLx8fEQiURwOBzo7+8P2OVgKeFfJ+zcuRP/+I//iPT0dNqmIQRBICYmBpmZmRgbG8PAwMCCy9omJiZi586deO6551BeXs5uj4MmMRAEAZlMBrlcDo/Hg7GxsUWrqsNEoqKikJ6ejsceewwvvvgiVq9eTfuBFpfLhVQqRU5ODmw2GyYnJ2G32+f0BvAnW9u1axeef/55VFVVsVvjM9CWeJjD4SAlJQUFBQWIjo6e/WG8Xu+ycNfwl6CSyWQoLS3FE088ge9///uoqKgIWZ8cDgepqalYsWIF+Hw+vF7vPV4BFEWBIAjweDzExsYiOTkZKpUKTz/9NPbt24eysjJWCHdBUCF4fdvtdrS0tOCTTz7B9evXMTQ0NFuwbymOFhwOBwKBAGlpaaioqMD27dtRWVm5qHXTvF4vNBoNLl26hMbGRvT19c3mfo2NjYVCoYBarcb27duhUqkQExOzaLZFCiERgx9/2GN/fz9GRkYWPK+NFKKjoyGXy6FUKiGRSBa9VvWXcblcmJychM1mA0VREAqFrKfAPAipGFhYIonlfcrCwnIXrBhYWGZgxcDCMgMrBhaWGVgxsLDMwIqBhWUGVgwsLDOwYmBhmYEVAwvLDKwYWFhmYMXAwjIDKwYWlhlYMbCwzPB/tXD3dreRr2gAAAAASUVORK5CYII=;" vertex="1" parent="Dx7y4EGR-CTOSj1UD8kM-28">
          <mxGeometry x="218" y="55" width="114.65" height="127" as="geometry" />
        </mxCell>
        <mxCell id="8YiQ8sACHnzhZr1-1O1K-65" value="" style="shape=image;verticalLabelPosition=bottom;labelBackgroundColor=#ffffff;verticalAlign=top;aspect=fixed;imageAspect=0;image=data:image/png,iVBORw0KGgoAAAANSUhEUgAAAMMAAADYCAYAAABWblfyAAAgAElEQVR4nO2deVCb553Hv68khBCHDpA4hLhvYYNlML4I8R07rRs3cZK2m3ayburMttlkp93OTrbTcWe7M5lOd7PZpk3atBtvnTh2nMa108SMbwcH2xhjsDiMQAjEJRAIgW4kve/+YcTaiW1AeoVewfuZ4R9G7/P8Xun9vs/1OwiKoiiwsLCAE24DWFiYAisGFpYZWDGwsMzAioGFZQZWDCwsM7BiYGGZgRUDC8sMrBhYWGZgxcDCMgMrBhaWGVgxsLDMwIqBhWUGVgwsLDOwYmBhmYEXbgMiGa/Xi7GxMYyOjsJsNsNut4MkSQgEAojFYshkMiQlJSEuLi7cprLMA1YMC8Dn88FsNuPWrVu4du0a2tra0N/fj4mJCbjdbvh8PgAAQRDg8/mIj49HWloa8vLyUFlZiYqKCqSnp4PP54f5TljuB8EG98yNx+NBT08PLl68iLq6OrS3t2N8fBwWiwUulwsejwdf/hoJggCXy0V0dDTi4+ORmJiIjIwMVFVVYcuWLVi5ciUSEhLCdEcs94MVwxz09fXh4sWLOHv2LG7evAmDwQCr1RpQW3w+HykpKSgqKkJNTQ127NgBlUoFgUBAs9UsgcCK4QG43W40Njbi5MmTOHv2LLRaLWw2Gy1tc7lcZGRkYMOGDfj617+OmpoaJCcn09I2S+Cwa4b7YLPZcOHCBRw+fBgXLlzAyMgIre37fD7o9XqYTCb09vZieHgYu3fvRnZ2Nq39sCwMVgx3QVEUHA4Hamtr8bvf/Q7Xr1+nbTS4HzabDVeuXMHo6CgmJyfx3HPPsYIII+w0aQaKouB0OnH+/HkcOHAAra2tcLvdi9a/QqHAvn378A//8A+Qy+UgCGLR+ma5A3voNoPb7UZzczN+9rOf4datW4sqBAAYGhrC22+/jffffx9Wq/Uru1MsoYcdGXBnDt/d3Y2XXnoJ586dA0mSYbGDw+EgMTERf/rTn7BlyxYIhcKw2LFcYUcGAMPDw3j33Xdx9uzZsAkBAEiShNlsxquvvore3l54vd6w2bIcWfZisFqtuHr1Kg4ePMiIqYnP58Pt27fxxz/+EUajMdzmLCuW/W6STqfD0aNHYTKZwm3KLF6vF8eOHcPmzZshkUgQGxs7r+tIkkRnZyc0Gg3GxsYAYM6FOEVRIAgCUqkUZWVlKCoqCtr+SGVZi2FiYgINDQ24dOlSWKdH92N4eBiffPIJ8vPzUVhYOK9r6urq8O677+L69esL2gAgCALR0dFYuXIlXnnlFaxZsyZQsyOaZS2Gnp4eXLp0afYtyiR8Ph/OnTuHxx57DBkZGYiJiXno551OJ06dOoXTp09jeHh4wf0RBIHx8XFkZmaisrJyWW7tLts1g9vtRnt7OxoaGhixVrgfBoMBjY2N81o72O126HQ6mM3mgPqiKApWqxWtra2MGyUXi2UrhpGREbS2tqK/vz/cpjwQj8eDhoYG9PX1zSlYj8cDj8cT1INMkiTcbjcrhuWGXq9HR0fHoh+uLZSOjg7o9fo57SQIYvYvGJbj9MjPshQDSZLo7e2FTqcLtylzMjo6GtT0h2X+LEsxuFwuDAwMRMQ+vsfjgcFgoN1zlk4oilqUv1CzLHeTLBYLhoeHMTU1FW5T5sXQ0BBGR0fDbcZ9oSgKNpsNTqcz5A9sVFQUYmJiEB0dDQ6H/vf4shTDxMQEzGZzxLg7mEwmTExMhNuM++LxePDb3/4Wn332GRwOR0jWHH6RJScnY8+ePdizZw8SExNp72dZimFqagp2uz3cZswbq9UKu90+e1rMJCiKQl9fH1pbW0Ma+wHccWTs6+uD2+3G/v37wePR+/guSzHY7XY4nc5wmzFv3G43HA4HvF4voqKiFq1fq9WKgYEBuFyue/4fHR0NmUwGmUw2+z+v1wuPxxNym3p6etDS0oLx8XHaQ2WXpRg8Hk/ETJGAOw+a1+td9P3/zs5O/PrXv0Zvb+89/1cqlXj66aexd+/eRbUHuPPb2e32kGyJL0sxRBoURYEkyUU/KZ+amsKtW7fQ0dFxz//NZjNqamoW1RY/odxdWpZbqxwOh3Fz74fB4XDA5XJDsoMSKEx1YQkG5ny7iwifz4+orHZRUVHg8/ngcrnhNmWWSHqZzJdlKYa4uLg5vUCZRExMDIRCIaNGhqXIsvx2RSIR4uPjI+btJhKJkJCQEDH2RirLUgwSiQRJSUmIjo4OtynzQi6XQyKRhNuMJc+yFINIJEJaWhpEIlG4TZkTgiCgUCjY9JOLwLIUA5/PR3p6OhQKRbhNmZOoqChkZWWxYlgElqUYACA3N3fescXhRKlUIi8vLyJGsUhn2YohKysLJSUljE/UVV5ejqysLNr9cObDgw63KIqaLcyylFi2J9BisRilpaUoKipCU1NTuM25LwKBAGvXrkVmZmZY+k9ISIBKpbqnDBdFUUhPT0dKSkpYbAoly1YMPB4PxcXF2LhxI1paWhj5pluxYgVWrVoFqVQalv7z8vLwk5/8BA6HY/Z/FEVBKBRCqVSGxSYej4fY2NiQjOjLVgzAnfl4dXU1amtrodVqw23OPfD5fOzatQsFBQXz9lT98rTGfy4RqOuERCLB2rVr5+xzsV4kHA4H+fn5UKvVISkBtqzFIBQKUVZWhl27dqG3txfT09PhNmmWsrIybN26FXK5fF6fpygKHA4HMpkMycnJSE1NRXx8PKKiouByuWCxWNDf34+BgQE4HA7afIu4XC5KS0uxbdu2r7h6001cXBzWrVuHrVu3huSMaFmLAQDS09Pxta99DZcvX0ZjY2O4zQFBEBCJRPjOd76DoqKief/oUVFRqKioQEFBAVQqFXJyciCVShEVFQWn04nR0VHcvn0b169fR1NTE3Q63T3Tn0Dhcrl4/PHHUVlZGXIX84SEBCgUitBNGykWymQyUW+++SYlk8kogiAoAGH5IwiCEggE1N69eym9Xk95vd5534PT6aQGBgaoycnJh35ucHCQ+uMf/0jt2LGDkkql99xvTEwMtX37dmp6ejrYrzQiYcVAURRJktTQ0BC1f/9+Ki4uLmyCiI6OptRqNdXQ0EC53e6A78XhcFCjo6OUwWCgent7qYGBAWpiYoLyeDyzn6urq6OeffZZSiKRsGKYYdlPk4A7UxO5XI5XX30VfX19uHz58mzM8WIRFRWF7Oxs/PznP4darQ7IXdvj8WBiYgIajQb19fXo7OyE0+lEUlIS1Go1ampqkJ6eDqFQiI0bN4LH48Hn8+HkyZOMT6a2KIRbjUzC5/NRPT091NatWymhULhoIwKHw6EKCwupQ4cOBWw7SZLUjRs3qO9///uUXC6/bx95eXnUO++8Q42Njc1ed+LECWrDhg3syECx06Sv4PV6qY6ODupb3/rWPVOIUP1FRUVRVVVV1JEjRyin0xmw3ZcvX6Z27txJxcXFURwO5759cblcSiKRUL/85S+p/v5+iqIoamxsjHrttdeohIQESigUUjt27FjQWmUpwT1w4MABesaYpQGHw4FIJMKqVavA5/MxODgYspxFUqkUX/va1/DjH/8YmzZtmndRki8zODiIX/ziF7h48SJsNtsDp3cURcHtdqOrqwsZGRnIysqCWCyG2+1GT08PzGYzNm/ejF27dgVzWxELK4b7wOVyIRaLUVhYiOzsbJAkibGxMdrSy/D5fKjVauzbtw/PP/88ysvL73F5WCiHDh3CX/7yF4yOjs5rnePPb1RYWIiMjAwQBAGXywWhUIj9+/dHhDdvKGCrfc6B2WzG7du3UV9fjwsXLuDGjRsB5z0VCoUoKSnBI488gpqaGqxatQqpqakBO+FRFIXJyUl8+9vfxueff76gxGhpaWk4cOAAvvOd74AgCAwNDcFisUClUkEgEARkT6TD7ibNgVQqRVVVFXJyclBRUYGWlha0tLRAq9XCYDBgYmICDofjKwdOHA4HfD4fCQkJSE1NRW5uLkpLS1FWVoaVK1dCoVAEHYft8/nQ2NiIjo6OBY9ao6Oj6Onpwfj4OJRKJXJzc4OyZSnAimEecLlcpKSkQC6Xo6KiAn19fejq6oLBYMDg4CBMJhMcDgemp6dBURR4PB6EQiHEYjFSUlJmH7bc3FxIpVLa3LE9Hg8+/fRTmM3mBZ/+er1emEwmTE5Ohs3pjmmwYlgAHA4HcXFxUKlUUKlUIEkSU1NTmJychM1mg8vlAkVR4PP5iI2NRXx8PEQiUUj8aHw+H4aHh3Hu3LmA1zLT09OLkhIyUmDFEAQcDgdisRhisXjR+3Y6naivr0d3d3fAD3R0dHRE5Y8KNctWDD6fD263G06nE263Gz6fDwRBgMfjQSAQICYmBnw+n5HpWfwL508++SRgIURFRUEul4dFyExl2YnB6/XC5XLBZDJBq9Wira0NfX19mJycBI/Hg1QqRUFBAVasWIHMzMzZaQ6TEnhNT0/DYDDg4sWLAccSyOVy5OfnIykpiWbrIpdlJQZ/Lbfjx4/j448/fmhNgaSkJDzyyCP41re+hZqaGiQlJTFmlLBYLLh06VJQ1XzUajUKCgoiJnfUYrBsxECSJI4cOYLf//73aGlpgd1uf+hb1Ww2429/+xuuXLmCnTt34oUXXpgz6msxoCgKJpMJp06dCrgNHo+HDRs2ICcnh0bLIp8lLwaKouB0OvFf//VfOHz4MHQ6Hdxu95wntSRJYnp6GiMjI/jLX/6C4eFh7N+/H7t37w7rCGGz2dDW1obm5uaA28jPz0dZWVlISkFFMktaDCRJwmQy4fXXX8dHH30Eg8Gw4AUnSZKYnJxEXV3d7BnC448/HiKL52Z4eBh1dXVBlYyqrq5GVlbWolYBigSWrBi8Xi8MBgN+97vf4ejRoxgeHg4qcN1ms+HKlSsQCoXIzMxEaWkpjdbOD6/XOxtvEWiIZXx8PKqrq5dkqpdgYc4WCY14PB50d3fjrbfewuHDhzE4OEhLBofJyUnU19fj8OHDIQ9+vx/j4+NoaWlBd3d3wG2sWLECKpUK8fHxNFq2NFhyYvB6veju7saf//xnvP/++xgeHqY1Ym18fByfffYZWlpaFr3GWm9vL65duxZwpVKCILBt2zakpqYyqvAJU1hS0ySSJKHX6/Hhhx/ivffew/Dw8Lyv9btaCIVCcLlckCQJh8MBh8NxzzrD4/HAYDDgr3/9K8rLyxdta9LlcuH27du4ceNGQNcTBAGZTIaamho2b+sDWDJioCgKQ0NDOH78OA4dOoT+/v45ryEIAkKhECkpKVAoFMjJyUFycjL4fD48Hg9MJtM9zniTk5OYnp6G3W7H6dOn8fLLL0Muly/KgdzQ0BBaWlowMDAQ0PVcLhdVVVUoLCxcti7ac7FkxGCxWHDy5EkcOnQIOp1uzs9HRUUhMTERq1atwq5du/Doo48iOzv7nmgzh8OB/v5+NDU1ob6+Hs3Nzejv78fk5CT0ej06OzshkUhCPjpQFIX29nY0NTUF5H5BEAQEAgF2797NVgB6CEtCDG63G7W1tTh06BBaW1vn/DyPx0NmZib27t2L559/Hvn5+QD+/2yBmslOJxAIUFhYiMLCQnzzm9/EwMAArly5gnPnzqG5uRl6vR6rV68OuRgcDgc0Gg3a2toCup7L5SI1NRWbN2+OqFp2i03Ei4GiKFy7dg3/8z//g4aGhnldk5mZiZdeegnf/e53IRaLQVEUvF4vLBYL9Ho97HY7RCIRlEolxGIxuFwu+Hz+bEzCM888g8HBQXg8nkVZM3R3d6OlpQVjY2MBXR8TE4NNmzZBoVCwC+eHEPFi6Ovrw29/+1tcvXp1Xrs7iYmJ2L9/P5555hmIRCJMT0+js7MThw4dwunTpzE4OIjp6WkIBAIolUqsW7cOW7ZsQWVlJdLS0kAQBKKiopCRkQGKohbl4bpx4wba29sDvj4hIQF79uwJS42HSCKivx2n04k333wTX3zxxby2GwmCwDe/+U1s374dSUlJmJqawtmzZ/Hf//3f0Gg0sNls8Hq9oCgKVqsVFosFOp0OJ0+eRGZmJiorK1FdXY01a9YgLS1tEe4QGBsbw40bN6DX6wO6PiYmBkVFRaiqqmKU5y0TiWgxfPjhhzh16hRGRkbmdZaQk5ODnTt3Ij8/H9PT0zh//jzeeOMNNDY2fiVajKIoTE9PY3p6GpOTkxgZGUFnZydqa2uRkZGB1atXY926dSgvL0dycnLI3rotLS3o6OgIOEmwRCLBpk2bIBKJ2IXzHESkGHw+H9rb2/Huu+9Cr9fD6/XO67rq6moUFRVBKBSisbERJ06cwI0bN+YMm/TnGxodHYXJZIJOp4NGo8Hp06eRk5ODsrIyqNVqqFQqJCcn0+bz4/V6ceXKFfT09AR0wOdfOG/bto0dFeZBxImBoihYLBb8/ve/x82bN+cd/8vn87F27VrI5XI4nU5cu3YNly9fXvAb1y+MwcFBDA4OQqPR4Nq1a8jMzERhYSFKS0uhUqlQUFCAlJSUoEaM/v7+oFLTJCQkYMWKFSguLg7YhuVExInB4XDg/PnzOH78+ILcEsRiMfLz8xEXFwej0YjW1tZ5HczNhcvlQm9vL3p7e3H9+nWkpaUhPz8fxcXFKC0tRX5+PnJzcyGXyxe82L527Rp0Ol3AflCpqamorq5m/ZDmSUSJwePxQK/X409/+hOMRuOCpg4ymQyJiYmzKSP9u0Z04nA40N3dje7ubly4cAFKpRIqlQorV67EihUrkJWVBaVSOVtE5GE4nU5cunRpQS4ld8Pn85GTk4P169cHdP1yJKLEYDabcfr0aVy8eHHBc2h/LDNBELOpXUKJy+VCV1cXurq68Le//Q1ZWVlYvXo1KioqsHLlSiiVSshkMiQkJNw3Q0VXVxdu3rwJi8USUP8ymQzl5eVsNNsCiBgxuN1u3L59G++9915AtQTu3kmhHlDfOFT4PWm7u7tx/PhxZGdnY82aNVi3bh3KysqQnp4OkUiE2NhYEAQBq9WKkydPwmAwzHtz4G4IgkBOTg7Wrl3LpoJZABEjhqGhIdTW1gYc7mi1WmddLUQiUdjm0f5Dvs7OThw7dgxZWVlYt24dHn300Vkv2CtXruB///d/YTKZAupDIBCgqKgIq1evptn6pU1EiMHj8aC1tRUfffRRwG/0kZERWCwWeL1eKBQKJCcng8vlhrX+s98t2z/iJSUlQSgUore3Nyi7MjIysGrVKjaabYFExOZzT08Pzp49i56enoDbGB8fh06ng81mg0KhwIoVKxbtFHk+eDwejIyMQK/XBy1QlUrFjgoBwHgxeL1etLS04MyZM0FFlvkPsEZHR8Hj8bBx40bU1NQw6lSWJMmgo+fEYjFWrlyJgoICmqxaPjBeDHq9HvX19UGNCn4uXLgArVYLt9uNoqIiPPXUU6iurqbBSuZQXFyMlStXIiEhIdymRByMXjOQJImbN2+ivr6elmqUBoMBn376KXJycqBSqbBx40Z4vV7Ex8fj4sWLAccWMwUulwu1Wo2SkhLW/SIAGC2GkZERXL9+HZ2dnbS0Nz09jdraWuTk5EAkEiE9PR1btmyBVCpFZWUlGhsb0d7ePnsgF2lFjVJTU7Fq1Sqkp6eH25SIhNFi0Gg0aG5uhtVqpa1Ng8GADz/8EEKhEE888QTS09NRXV2N4uJiPProo7h9+zZu3bqFzs5O6HQ6GI3GsKSFCYTy8vJZR0SWhcNYMTidTjQ0NOD27du0vqEpikJzczMOHjwIu92OnTt3Ijc3FykpKUhJSUF1dTUGBwfR3t6OW7duQaPRoLu7GwMDAzCZTIwVhkAgwLp165CVlcWoTYFIgrFi6OvrQ0tLS8Aemw/D5/Phxo0bGB0dhVarxY4dO1BUVITk5GRIpVKkp6dDqVRi8+bNGBoagkajQWNjI27dugW9Xo+RkRGYzWZa1jF0kZmZiVWrVkEmk4XblIiFkaVvKYpCbW0tPv30UwwNDYWsn6mpKWg0mtkKOJOTk/D5fLP7/Hw+H1KpFIWFhVi/fv3sdEoikYDH44HL5YIgCPh8vkVPKHY3BEHgG9/4Bh5//HEkJyeHzY5Ih5Glb10uF/75n/8ZH3zwAcbHxxetXw6HA4VCgXXr1mHz5s2orKyEQqFAXFwcoqOjZ2MTfD4fRkdH0dDQgLNnz+Lq1asYHByE1WqFy+WCz+db1MW3UCjE22+/jd27d7MJwoKAkWLo6OjAD3/4Q1y6dCmsb9zMzExs2LAB27dvx/r165GRkQEejwcOh3PPvHxgYAD19fU4ffo0vvjiCxgMBkxPTy+aKNavX4+3334bpaWl7HohCBgphoMHD+JXv/oVOjo6wmoHh8MBl8tFdHQ0FAoF1q5di23btmHDhg3IyMiY3csnSRI+nw8ejweDg4NoaGjAmTNnUFdXB71eH1JBcDgcvPXWW3jqqacglUpD1s9ygHFiIEkSP/rRj3Ds2LGA8wSFAn/hQ6lUig0bNuAPf/gD4uLivvI5f804m80Go9GIpqYmXLx4EfX19ejr6wvIJftBREVFYc+ePfjVr34FpVLJHrQFCeN2k4xGI9rb2zE1NRVuU+7B6/XCZrOBoijY7fYHJg/j8XiIi4tDbGwsEhMTkZmZiZqaGhiNRty8eRNXrlxBY2Mj+vv7A67fDNzZSl27di1++tOfIjU1lRUCDTBODG1tbTAajYwt1h0dHT2vQH9/sjGJRAKJRILMzEwUFBSgpqYGvb29aG1tRVNTE27dugWDwbCg8wuRSIRNmzbhpZdeQmlpKVuBhyYYJ4YbN25gamqKsa4QAoEA6enpC16o8ng8yGQyyGQyFBYWYvXq1di8eTO6u7vR3t4OjUaD9vZ29Pf3PzA2Oy4uDoWFhdiyZQt2796NyspKNpKNRhglBr+7NpMd5gQCATIyMoJqg8/nIy0tDWlpaSgvL4fJZEJPTw9u374NjUaD3t5emEwmOBwOEASBuLi42brNarUalZWVyM3NpemOWPwwRgwkScJsNkOr1QY1lw41MTExUCqVtLUXHR2N9PR0pKenY/369bMBPkNDQ7DZbCAIAiKRCAqFAllZWUhKSmKTB4cIRomhp6cHIyMjtO640AmXy0V8fDwUCkVI2ufxeFAoFCFrn+XhMGYLwp8y0ul0Mna9wOfzkZSUBLlcHm5TWEIAo8TQ1tbG2F0k4M4UKTU1lY0iW6IwZprk8/lw+/ZtRoshLi4OSqWSljm7P96Zoqh7XE4IggCHw5n9Y1k8GCEGkiRht9thMBjCmrplLhISEpCVlRV0Oy6XC319fWhra4NWq4XRaITD4QCfz4dcLkdeXh5WrFiB/Px8thjhIsIYMZjNZoyMjCxpMZhMJpw+fXo2GdrY2NisQx9JkiAIYrZklkgkQmlpKXbs2IFt27YhMzOTHSlCDCPE4PV6YTQaYbPZwuql+jB4PB4SExMD2lb1eDyora3F+++/j+bmZhiNRtjt9ofumplMJgwPD6OpqQmfffYZnnzySWzfvp2NVwghjBHD8PAwY7dUgTsxA6mpqUhKSpr3NT6fD8PDwzhy5AiOHj0KrVY7b8GTJAmr1Qqr1YqxsTH09fWhs7MTzz77LEpLS4O5FZYHwBgxzLcUVbgQi8VQKpXzDrb3l6s9evQoPvnkE+h0uoDvz2azQaPRwGKxYHJyEvv27UN5eXlAbbE8GMaIYXR0lNFi8HugzmfePjY2hrq6Ohw7dgxnz54NOIHw3fh8PvT19eHjjz8GQRB4+eWXWZcMmmGEGHw+Hy0PTCiRyWRzLp79D+yZM2fw4Ycfor6+ntZsGhRFYXh4GMePH4dMJsMrr7yCuLg4NrqNJhgjBovFwtiRgcPhQCKRPDRRscPhQGdnJ/7617/io48+Cqpu88OgKApGoxHvv/8+KisrsW3bNtZXiSYYIQb/YpHJ8Hi8B8YwWCwWNDU14c9//jNOnTqF0dHRkNri9XrR39+Pt956CxUVFZBKpey2Kw0w4hskSZLRnqokSc56k969E0RRFCYmJvDZZ5/h5z//OY4ePRpyIfhxOp24cOECvvjiC0blb4pkwi4GiqLg8/kY/4PeunULx48fh8lkmi2WbrFY8Jvf/AY//elPaV8fzAVFUXC5XPjggw8YP6pGCoyZJnk8HsauGYA7h2CHDx+GTqfD1q1bQVEUTp06hatXr87GRi82Xq8Xly5dwtDQECQSCRv+GSSMEIN/dGAyFEXBbDbj/PnzuHLlCoA7i2a32x02EVMUBZPJhObmZmRlZUEsFofFjqVC2KdJABg9ItyNf21jNpthNpvhcrnCbrvP58PVq1cZl00kEmGEGPxuyyyB0djYiPHxccb6dUUKjHgCORzOnKlXWB5Md3c39Ho9HA5HuE2JaMIuhrvdltmT1MCYmppCa2srLBZLuE2JaMIuBuDOyBATExNuMyIWiqLQ1NTEqHSckQhjxHC/vKUs86etrQ3Dw8OMDptlOowQA5fLRUJCAjtNCoKBgQF0dXWxu0pBwBgxJCYmhtuMiMblcqG9vT0kZb+WC4wRg1wuZ0eGINFoNBgcHAy3GRELI8TA4/GQnJzMiiFIurq6FpzRm+X/YYwYUlJS2IO3IDGbzejs7GSnSgHCiKePx+MhNTUVMTEx7OgQBD6fD1qtFgaDIdymRCSMEAOXy0VSUhKbYZoGtFrtV+IuWOYHI8TA4XBms1uzYgiOwcFB6HQ6TE5OhtuUiIMRYiAIAnw+H3l5eayPUpDYbDbodDr09/eH25SIgxFiAO5MlUpKStgAlSAhSRJ6vR7d3d3hNiXiYJQYVCoVBALBkl5E+4sexsXFhWxKaDAYoNVqH1gbjuX+MEoMhYWFEIvFS3aLNT4+Hmq1Gt/4xjewdetWpKenh+Rex8bG0NXVxTruLRDGPHUcDgepqanIysp6YI3lSIUgCIjFYmzduhWvvfYa3nzzTbzxxht48sknQ+Kg6E9539XVRXvbSxnGiAG4U+yvtLR03vlMIwEulwuxWIx9+/bhN7/5DR555NgIAScAAAzkSURBVBHExsYiIyMDVVVVyMvLC0m/g4ODaG1tDUnbSxVGiQEAKisrER8fH24zaIHH4yE3NxdvvPEG/v3f/x1paWn3TIuys7NRUFAQkr6NRiPa29sZn4KHSTBODOXl5UhMTIz48waRSIRdu3bhnXfewZNPPono6OivbAxkZGSgoKAgJIXNrVYrdDodent7aW97qcI4MSiVShQUFER0sE9WVhZ+8IMf4Je//CUqKysfOO2TSqXIy8tDamoq7Tb4fD4YjUbcunWL9raXKowTg0AggFqthlQqDbcpCyYqKgrr1q3Dj3/8Y7z44osoLi5+aDhrVFTUrPhDwdjYGG7evBn2dDaRAuPEQBAEqqqqIs6lWyqV4oknnsArr7yCp556Cjk5OfM6TVcoFFCpVCG514mJCbS1tWFiYoL2tpcijBMDABQXFyM/Pz9ipko5OTl47rnn8MMf/hCPPfYYUlJS5n2tXC5HSUlJSDYNXC4XDAYDOjs7aW97KcJIMUilUqjV6gU9VOGAy+Vi9erVeOGFF/Diiy9i/fr1Cy6YHhcXh+zsbFpK6n4ZkiQxPj6OxsZG2tteijBSDARBYM2aNcjOzmbkrhKHw4FIJEJNTQ1efvllvPDCCygsLAzIr4rL5SIlJQUrV64MgaV3cio1NDSwWTPmASPFAAAlJSVQqVQLftOGGh6Ph7S0NOzatQv/9m//hqeffhqJiYlBzfmTkpKwatWqkHjsOhwOtLW1Mb6AJBNgrBjEYjGqqqpQUFDAmIV0dHQ0cnNz8Xd/93f4j//4D6xbt44W1xGxWIySkpKQ7KB5PB4YjUY0NzezAT9zwFgxAMCGDRuwZs0aCASCsNpBEAQEAgHKysrwL//yL/jFL36B1NRU2kQqEAigVCpRXFxMS3tfxul0oq6ujtF1tpkAo8WgUCiwY8cOVFVVhdWO2NhYfP3rX8frr7+O7373uyE5MRaLxVi7di3t7QJ3xOAvd8VOlR4Mo8VAEAQ2bNiAp556ChkZGWGxITo6Gnv37sWrr76KioqKkLmXJyQkoKKiIiTBTR6PB1qtFjqdjh0dHgKjxQDceUh27tyJ733ve2FZTCcmJmLVqlUoLi4OyYjgJyYmBoWFhVAqlbSvkUiShM1mw7Vr19icSg+B8WLgcDhQKpXYs2cPnn322UWPkXa5XLDZbCHfmuTxeEhKSkJFRUVItpO9Xi/q6upYMTwExosBuOPDU1hYiG9/+9t47LHHFrVvq9WKS5cuoa6uLuR152JjY7Fx48aQTMV8Ph8aGxthMpkYXz8vXHAPHDhwINxGzIeoqCgkJiYiMTERnZ2dMBqNi9IvSZKYmJjA9PQ0lEolFApFyPryF275+OOPaa8XR1EUHA4HampqkJGREdIpX6QSMWIA7ixmU1NTERsbC41GA6vVuii7I06nc/aNmp+fHzKPWv8W7pkzZ2A0Gml/g3u9XuTk5KCsrGzJBFDRSUSJAQD4fD5yc3Nht9uh1WrhcDgWRRBWqxUmkwl8Ph/FxcUhCU31jwydnZ3QaDQhiVKLjo7Go48+CplMxpjDTKYQEWuGuyEIAgkJCfjRj36EHTt2QCKRLNqP2tvbi/feew+nTp2C0+kMSR9cLhfV1dUQCoUhuS9/hR82jcxXiTgxAHcEIZfL8ZOf/ARVVVWIjY1dlH5JkoROp8Prr7+OxsbGkOww+T1hZTJZSHaVRkdH0d7ezqafvA8RKQY/JSUl+Kd/+ieUlZUtWia+6elpdHR04Gc/+xkGBwdpn9dzOBwoFAqUlJSEZCpGkiRu3rzJ5lS6DxEtBgDYvHkzfvCDH0ClUi1any6XC1evXsW//uu/YmxsjPY1C5fLRVVVVcgWuTdv3oTJZGJdM75ExC2gvwxBEMjNzYXH44Fer4fZbF6UfkmSRHd39+yCmu6oPJIkcebMmZC8we12O6qqqpCfn7/kErYFQ8SPDMCdw6q9e/fiySefhFwuX5Q+KYqC0+nEO++8gxMnTsBkMtHaflFRETIzM0PisetwONDR0YHR0VHa245kloQYCIKAQqHAtm3bUFlZuah9G41GvP3227hw4QKti1KxWIzS0lKIxWLa2vRDkiRaW1sxNDREe9uRzJIQA3Bnnp2ZmRmSWOKHQVEU2tracPDgQVod4bhcLtRqdchKAnd2dqK/v5/dYr2LJSMGAHC73WFxRPN4PLh8+TI++OADtLS00BZRtmLFCqSmpobEOdFoNKK7u5tNI3MXS0IMFEXBYrHg+vXrYUu2a7VaUVtbi2PHjkGr1dLSZmZmJnJyckKSMsfpdEKr1WJgYID2tiOVkPlDkyQJq9UKo9GIiYkJOJ3OkHlL+nw+6PV6nDhxAhqNJiR9zAej0YgTJ05AIpHg7//+74NOGxkXF4eSkhLI5XJYLBaarPx/tFotent7oVarWdcMhEAMPp8PVqsVvb29aGlpQWNjI3Q6HcbGxkIWE+DxeDAyMoKJiYmwuyd3d3fj2LFjkMvleOaZZ4IOSFKpVFAoFOjq6qL9XKCvrw89PT1wOp1LqgxAoNAqBn8mhrq6Ohw6dAiff/45HA4HnV1EBK2trTh48CAUCgW2bt0alLu0P/otKiqK9sXu+Pg4uru7YTQakZOTQ2vbkQhtawb/VOWdd97BK6+8gtra2mUpBODOd9HU1ITXX38dWq02qDd6SkoK8vPzQ7Kr5P/N2GKId6BNDH19ffjDH/6A//zP/6T9ACoScblcaGhowIEDBzA1NRWwIHg8HgoKCkKWEKG3t5e2BX+kQ4sYLBYLjhw5giNHjizb0eB+WK1WfP7553jttdeCWi8VFhYiKysrJIvc4eFhaLXakCzQIw1axHD+/HnU1tbCaDSyzl93QVEUzGYzDh8+jMuXLwd8BpKRkYHc3NyQuKo7HA7o9Xr09PTQ3nakEbQYRkZGcP78eWg0mrDv5DARfwWdgwcPYmpqKqA2EhISkJeXh/T0dJqtu7MFPjAwgLa2NtrbjjSCFkNzczM0Gk3AP/RywOPx4Ny5c9DpdAGFcnK5XGRnZ4esMqjRaERbW9uyd80ISgwURaG5uRn9/f1sUtuHQFEUjEYjbt68CbvdHlAbmZmZKCgoCIlrxsTEBLq7u5d9wE9QYnC5XNDpdKx/yzwgSRIajQY2my2g6+VyOfLy8kKSmWN6ehqjo6PL3jUjKDFMTU1hdHQ0ZMHxSw2DwRBwxguhUIjs7OyQHI5RFAW73b7s4xuCEoPD4Qipz9FSw2KxBJz41x+zEarwVo/HE/AUbqkQ9JrB/8cyNyRJBn0aXVJSEpJseARBLHtnvaDEEBMTA4FAwMi6a0wkISEhqAWwRCJBQUEB0tLSaLTqDnw+HyKRiPZ2I4mgxCAWi5GYmMgGlc+T9PT0oL4rHo+H1NRUlJaW0mjVHWJjY4N2OY90ghKDQCBAdnY2JBIJXfYsaVauXBn0KbJcLodarabJojsIhUIolcqwFYRhCkGJgSAIqNXqkGamXgoQBAGJRILVq1cHnQspMTERarWa1i3WtLQ0lJeXM66y6mIT9Am0Wq2GSqUKSWjiUoHH42Hr1q3Izs4OevErEAhQUFCATZs20WIbl8tFUVERqqurQ1aiK1II+u7lcjk2b96MkpISOuxZcnA4HMhkMnzve9+DVCoNesfGn37ymWeegVwuD7q9nJwcbNq0if39QIMYeDweHnnkEezcuRNKpZIOm5YMBEFAJBLh2Wefxfr162nbaIiLi8P69evx3HPPITY2NmBBJCYmYvv27dixYwc7soOm9JLx8fEQiURwOBzo7+8P2OVgKeFfJ+zcuRP/+I//iPT0dNqmIQRBICYmBpmZmRgbG8PAwMCCy9omJiZi586deO6551BeXs5uj4MmMRAEAZlMBrlcDo/Hg7GxsUWrqsNEoqKikJ6ejsceewwvvvgiVq9eTfuBFpfLhVQqRU5ODmw2GyYnJ2G32+f0BvAnW9u1axeef/55VFVVsVvjM9CWeJjD4SAlJQUFBQWIjo6e/WG8Xu+ycNfwl6CSyWQoLS3FE088ge9///uoqKgIWZ8cDgepqalYsWIF+Hw+vF7vPV4BFEWBIAjweDzExsYiOTkZKpUKTz/9NPbt24eysjJWCHdBUCF4fdvtdrS0tOCTTz7B9evXMTQ0NFuwbymOFhwOBwKBAGlpaaioqMD27dtRWVm5qHXTvF4vNBoNLl26hMbGRvT19c3mfo2NjYVCoYBarcb27duhUqkQExOzaLZFCiERgx9/2GN/fz9GRkYWPK+NFKKjoyGXy6FUKiGRSBa9VvWXcblcmJychM1mA0VREAqFrKfAPAipGFhYIonlfcrCwnIXrBhYWGZgxcDCMgMrBhaWGVgxsLDMwIqBhWUGVgwsLDOwYmBhmYEVAwvLDKwYWFhmYMXAwjIDKwYWlhlYMbCwzPB/tXD3dreRr2gAAAAASUVORK5CYII=;" vertex="1" parent="Dx7y4EGR-CTOSj1UD8kM-28">
          <mxGeometry x="218" y="211" width="114.65" height="127" as="geometry" />
        </mxCell>
        <mxCell id="8YiQ8sACHnzhZr1-1O1K-72" value="" style="group" vertex="1" connectable="0" parent="Dx7y4EGR-CTOSj1UD8kM-28">
          <mxGeometry x="357.99552841791024" y="86.00069026525995" width="172.80894316417942" height="120.47374223181217" as="geometry" />
        </mxCell>
        <mxCell id="8YiQ8sACHnzhZr1-1O1K-66" value="" style="shape=image;verticalLabelPosition=bottom;labelBackgroundColor=#ffffff;verticalAlign=top;aspect=fixed;imageAspect=0;image=data:image/png,iVBORw0KGgoAAAANSUhEUgAAAG0AAAAdCAYAAACg2uKXAAACGklEQVRoge3Yv6t5cRzH8dfxKw4GMjgGZeSeJBP5UcpwJGUw2P0NNguDQQb/hf/BH6BsFgwmRwo5DAb51efO30Jcl3s/3/t+lOmc3r3rWZ+Tj8AYYyBc0f30AuRxFI1DFI1DFI1DFI1DFI1Dhp9e4H/HGMP5fAZjDAaDAYIgPD2Tor2YpmnodruYTCYoFAqQJOnpmXQ8vhhjDOPxGNVqFZlMBs1mE9PpFOfz+cszKdobHA4HaJqGwWCAVquFfD6PRqOB4XCI/X7/8Dw6Ht/odDphNpthNpthvV6j0+kgnU5DURT4/X6IonjXHOHW3WOtVsN8Pv+2pf+i3W6H0WiEXq938bnP54Pf70c8HkcqlYIsy7DZbDdn3owWCAQwGo2e25rcxev1IhwOIxqNIpFIQJZl2O32i+/S8fhLqKoKVVXR7/ex3W4hSRJF++2sViu8Xi+CwSA8Hg+MRuPVd29GC4VCcDgc377gX3I8HrFYLKCq6sXnoihCkiTIsoxcLodsNgu32317KCMvtVwuWb1eZwD++ZnNZuZ2u5miKKzdbrPVanX3TDoe30gQBOj1ephMJkQiEZTLZcRisavfrmso2htZLBYkk0lUKhUEg0GIogid7vH7DYr2Bi6XC8ViEaVSCR8fH3A6nTCZTF++PL75P40873g8YrPZYLvdwuPxwGKxPD2TonGILow5RNE4RNE4RNE4RNE4RNE49An1JjI//auTNwAAAABJRU5ErkJggg==;flipH=0;rotation=15;" vertex="1" parent="8YiQ8sACHnzhZr1-1O1K-72">
          <mxGeometry x="2.9044715820897125" y="55.189309734740036" width="167" height="44.43" as="geometry" />
        </mxCell>
        <mxCell id="8YiQ8sACHnzhZr1-1O1K-68" value="" style="shape=image;verticalLabelPosition=bottom;labelBackgroundColor=#ffffff;verticalAlign=top;aspect=fixed;imageAspect=0;image=data:image/png,iVBORw0KGgoAAAANSUhEUgAAALAAAAB0CAYAAAAlzrj8AAAQxElEQVR4nO2d21NT1xfHvyfn5ORKuCcQCEJIIESRi1w0kUu4BYKQBCQpAZnKxVYFHbUP9anTl07/g770SZ+0007HTvvSWmdqZ1qnnVappRccHbVQrOWiKBYJ5PfQwVF/ViWXc4H9eU7WXnPyzT5rr7322lQoFAqBQBApEr4dIBAigQiYIGqIgAmihgiYIGqIgAmihgiYIGqIgAmihgiYIGqIgAmihonky4uLi7hw4QIuXryImZkZkE09wougaRpmsxk1NTXQ6XSgaToie2ELOBQK4aOPPsLp06cxNjaGhYUFImDCC5FIJNBqtfjtt9/Q19cHo9EYkb2wBBwKhTA5OYkTJ07g/PnzuH//fkROEDYWN2/exMzMDKxWK7RaLdRqddi2wo6Br1y5grGxMSJeQlhcu3YNv/76K+7cuRORnbAEHAqFcOfOHSwvL0c0OGFjc//+fSwuLkZkI+wZmMS7BCFA0mgEUUMETBA1RMAEUUMETBA1RMAEUUMETBA1RMAEURNRMU80oSgKcXFxSE5ORnx8PGQyGUKhEBYWFjA7O4vZ2Vk8ePCA5J8JT8CrgCmKgkKhgMFgQF5eHsxmMwwGA5KTkyGXy7GysoJ79+7hr7/+wvXr13HlyhWMj49jYmKC7AISAPAoYJZlkZ6ejm3btsHhcGDnzp0wm81QKpWgKOqJzwaDQczMzGBsbAxfffUVzp07h0uXLmFubo7MyBscXgSsUCiQl5cHj8eDV155BRaL5bmfZxgGWq0WWq0W27dvh9PpxHvvvYcvvvgCt27dQjAY5MhzgtDgXMAsy6KoqAivv/46Ojs711xKJ5fLUVFRAavVinfffRcnT57E5OQkCSk2KJwKmKIoWCwWjIyMoKOjA3K5PGw7cXFxeOutt7C8vIyTJ0/izz//JOHEBoTTNFpSUhL27dsHp9MZtngfh2VZHDlyBA6HAxqNJgoeEsQGpwL2eDyorq5GYmJi1Gympqaip6cHBQUFUbNJEA+cCTgtLQ3Nzc3IycmBRBK9YSUSCWw2G3bs2IGUlJSo2SWIA84EXF5ejvz8fCiVyqjb1mg0KC8vR3Z2dtRtE4QNpwJOSUmJ6uy7CkVRKCgoQFZW1v/lkAnrG04ELJVKYTaboVKpYjZGeno60tLSwLJszMYgCA9OBCyXy5GSkgKpVBqzMdRqNRISEqKS3SCIB04EzDAMZDJZTMKHVWiaBsuyYBjB1CcROIATAQeDQTx8+DCmGw3Ly8tYWloiO3IbDE4EvLCwgOnpaSwtLcV0jLm5OTx48CBmYxCEBycCXl5expUrV3Dv3r2YjTE1NYWpqamIG2UQxAVnabRvvvkGs7OzMbP/888/48aNGzGzTxAmnAn4woULGBsbi8ksfPfuXXz77be4evVq1G0ThA1nAp6ZmcGZM2dw7dq1qNs+d+4cvvvuO8zNzUXdNkHYcJZzWl5exueff47CwkIkJSUhIyMjKnZ///13nDp1CmNjYyQDsQHhtBrt1q1bOHXqFD777DPcvn07YnsTExN4//33cf78+YjbdBLECadZ/1AohNHRUZw4cQLLy8tobW2FwWBYs51gMIirV6/i5MmT+OCDDzA1NUWK2TconG9bLS0t4cKFC1hYWMDt27fhdDqRn5+P+Pj4F343GAxienoaly5dwieffILTp09jenqahA4bGF72XZeWlvDjjz9icnISP/30E5qbm7FlyxbodDpoNBrI5XLQNI1QKIRgMPioN8Qff/yBH374AZ9++im+/vprcpiTwN+x+lAohKmpKXz44Yf48ssvUVxcjMrKSuTm5kKr1UIulyMUCmF+fh6Tk5MYGxvD999/j8uXL5PdtmcQFxeHhw8fxnzLXmjwXvmysrKC6elpnD17FmfPngXDMFAoFGBZFisrK1hcXMTi4iIJE56DTCZDbW0tbt68ifHx8Q11b4ngeqMFg0HMz89jenoas7OzWFhYIOJ9DhRFoaSkBO+88w6OHTsGi8WyoYr6eZ+BCeFDURTUajWOHz+O7OxsZGdnY3x8HFNTU5iYmODbPU4Q3AxMeHnkcjkOHz4Mm80GlUoFlUoFn8+HxsbGDVPYTwQsUpRKJerq6jA4OIjExERQFAWKomAymdDR0QG73c63i5xAQggRIpVKYTKZMDIyAoPB8MRJF5lMBrvdjps3b+LGjRsYHx/n0dPYQ2ZgEZKeno7u7m7Y7fZnHtNKSkpCfX093G73uu9YRAQsMpKTk+FwONDV1fXcxojZ2dloa2tDbW3tus5KEAGLCIVCgdLSUgQCAeTm5j73szKZDFu3bkUgEEBeXh5HHnLPuhLwalopISFh3c06EokEJpMJbrcb1dXVL/WdhIQEVFVVoaen56VqTcTIuhKwWq1GZWUlGhoakJSUxLc7USU5ORmNjY1ob29fU4pMp9Ohu7sbDocjpn05+GLdZCFomkZJSQlGRkag1+uxsrKCM2fOrIuCH5ZlUVtbi87OzjWXn9I0jczMTBw9ehSjo6O4fv36utrZXDczcFpaGjo7O+FwOLBlyxbs3bt3XTT7oygKhYWF8Pl82L59e1g25HI5ysvLceTIkXUXXq0LAdM0DZ/Ph5aWFsTFxUGhUKCiogIjIyOi79STkJCAQCCA2traiDobyWQyDAwMoKWlZV2l1taFgJubm+HxeJCdnf1odklOTobL5UJPTw/P3kVGV1cXGhsbI47pKYqCXC7H0aNHUVhYCJlMFiUP+UX0Ajabzejr60NRUdETixSapmEwGHDgwAEUFRWJciauqamB3++H2WyOSl85iqJgtVrR39+PnJycKHjIP6IWsFKpxKuvvgqbzfbM1yLLsrBarTh27Bi0Wm1MmwtGm4yMDPT396O4uDiqhTkymQytra1oa2uL2slwPhHPL/oUFEVh165daGtrg06ne+bChKIoKJVKuFwudHR0iCYXKpVKEQgEUFNTg4SEhKjb12q18Pl82LlzJ+Li4qJun0tEKWCGYWC1WjE0NITc3Nzn5jclEgmSk5MxMDCAysrKNd9LxzVSqRTV1dXo7u5Genp6zN4ahYWF8Hq92Lp1K2iajskYXCA6AdM0Da1Wi8HBQdhstpe+c6OoqAh79uxBXl6eYBP6UqkURqMRw8PDKCgoiGm3+dVjSLt27cKmTZtiNk6sEZ2A4+Li0NDQgN7e3jXFhhRFobW1FS0tLUhPTxdcLlQikSAlJQVdXV1obm7mJEug0+nQ2toKp9Mp2tSaqAQsl8uxZcsWHDhwIKwLY+Lj49Hd3Y2qqirBxX6r2+BDQ0OQyWSc/cGsViu8Xi8qKipEmakRjYBpmobRaERfXx8qKyvDtrN582b4/X5s27ZNMD8YwzCwWCzYv38/5zct0TSNiooKBAIB6PV6zsaNFqIRcEpKCpqamqKyMdHU1ASPxyOI2I+iKGRnZ8Pn86GpqYkXH+Lj41FXV4e+vj7B/KlfFlEImGVZ2Gw2DA4ORuWiRJlMhvb2drjd7phcvLgW4uPjUV9fjz179vDqR1ZWFvx+P5qbm3n1Y62IQsBlZWVRL8zOzMyE2+3m9QejaRp2ux29vb28X5NLURSMRiNGRkawadMmwS1y/wvBC9hoNMLr9aK+vj6q6S+GYVBaWgq/34+ioqKo2V0LxcXF6OzsRGlpqSB2CRUKBUpKSjA8PCyaCyP5f2rPIS4uDi6XCy6XK6o33K+iVqths9kQCAQ4L4DX6/Vob29HY2Mj72HMKhRFITExEZ2dnXC5XFAoFHy79EIEK2CKolBVVYW2trYXnv+KhLS0NDidTrS3t3M2C8rlcjidTrhcLsGt/BmGgcFgwMGDB5GXlyf4mViwArZYLNi9ezfKyspimtRnGAYmkwk9PT0oLS2N2TiPU15eDo/Hg4KCAkGEDk+zGpv7/X5otVpBx8PCe3oAEhMT0dXVBYfDwcmrXaVSoaysDIODgzGvWsvKykJ3dzcqKytjevl5JKzWDvv9flRVVQm6CEpwAqZpGjU1NfB4PMjMzORsXI1GA4/HA7fbDZVKFZNZR6VSwePxoKmpCTqdLur2o43RaERvb6+gC+AFJ+CsrCz09/fDbDZzmlRfrVo7fPhwTH4wiqJQVlaGPXv2hHUvCF/U19c/ustEiKGEYAS8Wrs7NDQEm83GS9kjwzDYvHkzDh48CIPBELUyw8f/HBaLRfALo8eRyWTo6upCdXW14OpHAAEJWCaTobq6GgMDA7z3dPD7/Whra0NqampU7KlUKrz22mtoaGgQfD3yszAajfD7/aisrBTcolMQ3tA0Db1ej7fffvtRq1C+/RkeHkZFRUXEuVClUgm73Y6jR48KdtH2MtTU1MDr9cJoNPLtyhMIQsBarRb79+9HcXGxYIpJDAYDBgYGsHXr1rBtMAwDo9GIN998EwkJCYKbvdYCy7JwOp2CqB95HN6faGJiIurr69HT0wOWZXmffVdhGAa1tbXo6OiA2WwOy0ZmZib27t2L8vJyUYsX+HeNYjAY4HK5UF9fz7c7j+D1qbIs+6iLTlpaGp+uPBONRgO3242GhoY1b2WnpqaiqakJPp9PUDNWJEilUpSWlsLn8yE/P59vdwDwLOCcnJxHpwGEMvM+jdFohNvths1me+mshEKhQHl5OXp6ejjNZXNBfHw87HY7du/eLYiYnjcBp6amor6+Hu3t7YJemUulUlRUVMDtdsNqtb7w8xRFwWKxwOv1oqysjAMPuYWiKGRkZDxqns03vAhYLpejsrISXq83poU60WI1Tvd4PC+s29Xr9WhpaYHT6Vw3ocPTsCyLgoIC7N27Fzk5Oby+PXkRsMlkwq5du8LutsgHqy37HQ7Hf25EqFQq1NXVwe12i2q3LRw0Gg1qamrQ3d0NtVrNm4g5F3BiYiJaW1vR1NQk6NDhaSQSCQoKCtDb2/vMkyE0TaOoqAherxclJSU8eMg9CQkJ6O/vR1lZGW+7i5wKmGEYOBwOtLe3i7K53OrR98HBwSfyujRNP7o5qKqqSrCNU6INwzDIysrCG2+8Ab1ez0uHH04FnJOTg0AgwFndbSzQ6XQIBAI4dOgQUlNToVKpkJGRgeHhYbjdbt7PtnGNVCqFy+WC3+9HSkoK56EEZ9teLMtiYGAAO3bsEP01qCkpKTh+/DgCgQD+/vtv6HQ6pKenr9tF28swPDyMy5cv49y5c7h//z5n43ImYK/Xi5aWFlHUwb6I1YLv3NxcZGdng6Zp0DQt2Fw2F6SlpWFoaAgTExO4ePEiQqEQJ+PGPIRYzYsODg7CZDKJuhPi0zAMA5lMBoZhNrR4gX/XAbW1tfB6vZzeTRJTAa/e23bgwAGUlJSI4pQrIXw0Gg26urpQV1cXk77GzyKmIYREIoFarcb8/Dw+/vjjdTX7Ep7NysoKHj58CIVCgbm5uZiPF1MBh0IhLCws4NSpU6AoirO4iMAfNE3j7t27mJ+f52S8mAp4ZWUFd+7cwejoaCyHIWxgwo6BJRLJhl+4ECKDoqiINRSWgCmKgkajgVQqJSImhAVN01Cr1RFvQYc9A5tMJhiNRiiVSiJiwpqgKAp6vR4mkynipilhxcCrNaGHDh3CP//8g9HRUSwtLUXkCGHjoFKpsG/fPtjt9ogLuqhQBKmBYDCIGzdu4JdffsH09DRWVlbIbEz4T0Kh0KPrFPLz86NShhmRgIF/Rby0tITl5eWIHCFsHFiWjdr6KWIBEwh8Iu6z3oQNDxEwQdQQARNEDREwQdQQARNEDREwQdQQARNEzf8A5gwCZEc0s0oAAAAASUVORK5CYII=;rotation=15;" vertex="1" parent="8YiQ8sACHnzhZr1-1O1K-72">
          <mxGeometry x="54.90447158208971" y="9.759309734740071" width="82.58" height="54.43" as="geometry" />
        </mxCell>
        <mxCell id="8YiQ8sACHnzhZr1-1O1K-73" value="" style="group" vertex="1" connectable="0" parent="Dx7y4EGR-CTOSj1UD8kM-28">
          <mxGeometry x="355.0009583566098" y="216.39787293164505" width="172.17808328678052" height="112.20404318310011" as="geometry" />
        </mxCell>
        <mxCell id="8YiQ8sACHnzhZr1-1O1K-67" value="" style="shape=image;verticalLabelPosition=bottom;labelBackgroundColor=#ffffff;verticalAlign=top;aspect=fixed;imageAspect=0;image=data:image/png,iVBORw0KGgoAAAANSUhEUgAAAG0AAAAdCAYAAACg2uKXAAACGklEQVRoge3Yv6t5cRzH8dfxKw4GMjgGZeSeJBP5UcpwJGUw2P0NNguDQQb/hf/BH6BsFgwmRwo5DAb51efO30Jcl3s/3/t+lOmc3r3rWZ+Tj8AYYyBc0f30AuRxFI1DFI1DFI1DFI1DFI1Dhp9e4H/HGMP5fAZjDAaDAYIgPD2Tor2YpmnodruYTCYoFAqQJOnpmXQ8vhhjDOPxGNVqFZlMBs1mE9PpFOfz+cszKdobHA4HaJqGwWCAVquFfD6PRqOB4XCI/X7/8Dw6Ht/odDphNpthNpthvV6j0+kgnU5DURT4/X6IonjXHOHW3WOtVsN8Pv+2pf+i3W6H0WiEXq938bnP54Pf70c8HkcqlYIsy7DZbDdn3owWCAQwGo2e25rcxev1IhwOIxqNIpFIQJZl2O32i+/S8fhLqKoKVVXR7/ex3W4hSRJF++2sViu8Xi+CwSA8Hg+MRuPVd29GC4VCcDgc377gX3I8HrFYLKCq6sXnoihCkiTIsoxcLodsNgu32317KCMvtVwuWb1eZwD++ZnNZuZ2u5miKKzdbrPVanX3TDoe30gQBOj1ephMJkQiEZTLZcRisavfrmso2htZLBYkk0lUKhUEg0GIogid7vH7DYr2Bi6XC8ViEaVSCR8fH3A6nTCZTF++PL75P40873g8YrPZYLvdwuPxwGKxPD2TonGILow5RNE4RNE4RNE4RNE4RNE49An1JjI//auTNwAAAABJRU5ErkJggg==;flipH=0;rotation=-10;flipV=0;direction=east;" vertex="1" parent="8YiQ8sACHnzhZr1-1O1K-73">
          <mxGeometry x="2.58904164339026" y="14.162127068354891" width="167" height="44.43" as="geometry" />
        </mxCell>
        <mxCell id="8YiQ8sACHnzhZr1-1O1K-69" value="" style="shape=image;verticalLabelPosition=bottom;labelBackgroundColor=#ffffff;verticalAlign=top;aspect=fixed;imageAspect=0;image=data:image/png,iVBORw0KGgoAAAANSUhEUgAAAKsAAAB3CAYAAAB8FLBNAAASyElEQVR4nO2dWVBT1x/Hv4EgS5GRKqjYqlOtZdCOdsF2bJ3pTPWltmNbnY5j+1J96Ux96kM7vrYzbUdbHaVRh1oRkDUBIYEAgrJvImFfZAkBAkICCSFhSe72f+iEf21Rg9yb3AvnM8OLJuf8IJ+ce5bfOUfGcRwHAkEC+Pk6AALBU4isBMlAZCVIBiIrQTIQWQmSgchKkAxEVoJkkC/2j1arFe3t7ZiYmADDMN6OibCC8fPzQ3h4OPbu3Yt169bBz8/z9vIxWWmaxsDAAC5evIjW1lbMzMyAZVnIZDLegyasPjiOg0wmQ1BQEGJiYnDmzBnExMQgKCjI4wIWsFqt3A8//MBFRERwfn5+HADyQ354/5HJZFxYWBj37bffcgaDgfOUhTaYYRiMjY0hOzsbFosFLMuCQBACjuMwPT0NrVaLoaEhUBTl0fsWZKVpGpOTkxgdHSWiErzC+Pg4zGYzXC6XR69fkJXjONA0TUQleA2WZUHTNDzNpXpsgCWTyZ44mJLJZPD39yeDLcKS4DgOLMsu2gg+zbfFWHTqajHCwsKwadMmhIaGevxNIKxuZDIZZmdnMT4+DovFsuzyPJb1nXfewXfffYf9+/d73McgrG4CAgLQ0dEBhUKBjIyMZZfnsayBgYEICwvDunXrll0pYfUQFhaGwMBAXsryWFY3pM9KWCp8OUNyAwiSgchKkAxEVoJkWHKflbAy4TgOFEVhbm4OTqcTHMfB398fwcHBCA4OXlJ2lFAQWVc5drsdRqMRRqMRo6OjmJiYgN1uB8MwCAwMxLp167Bx40ZERUVh27ZtiIiI4G10v1SIrKuUmZkZ6PV6NDU14f79+2hpaYHBYIDVav1PyxoZGYnXXnsNsbGxiI2Nxe7du7Fp0yasWbPGqzETWVcZHMdhYmICdXV1SE1NRVlZGUwm06LLoQzDwOVywWazobe3F0VFRYiJicGnn36Kjz/+GNHR0QgNDfVa7ETWVQTDMJicnMStW7dw6dIljIyMLGknCEVRaGlpQV9fH3Q6Hb755ht88MEHCAkJETDq/0NkXSW4W9S4uDicO3fO4xzSxZiZmUF+fj4ePXqEs2fP4ujRo/D39+cx2sXx/RCP4BVMJhOSkpJw/vz5ZYnqhmVZtLS04Ndff0VVVRUPET4bIusqwG63o7q6GgqFgtckJIqi0N3djQsXLsBkMgmejUdkXQXo9XoolUoYjUbey56ZmcGDBw+QkpIi+E5oIusKZ3p6GjqdDuXl5YLIxLIsJicnoVKpMDY2JqiwRNYVzsjICBobGzE+Pi5YHS6XC11dXdDpdILmOhNZVzgjIyPo6OgQdG8dx3GYnZ1FdXU15ufnBauHyLqCYRgGJpMJw8PDXqmrtbUVTqdTsDqIrCsYiqIwNTUFm80meF0cx2F0dHRhqVYIiKwrGJqm4XQ6vbJnjuM4zM3NweVyEVkJS8e9fd4bq0sAIJfLBU0lJLKuYNasWYPQ0FCvrN3LZDKEh4cjJCREMGGJrCuYgIAAbNiwAREREYLX5efnh507dyIgIECwOlZMIsvo6Cg6OzvhdDrxyiuvYPv27QgODvZ1WD4nKioK0dHRaG5uFrQeuVyOAwcOCJqYvSJkLSgoQHx8PHp7e0FRFDZv3oyjR4/iiy++wJYtW3wdnk/ZunUr3nrrLajVaszOzgpSh1wuR1RUFA4ePOj5WavPU49gJXsBmqbR1dWFCxcuoL6+Hg6HAxzHwWAwYHp6GnK5HKdPn/ZavqUYCQ8PxxtvvIE333xTsOyoF154AR999BG2bt0KuVw4pSTbZ2VZFmazGQqFAnV1dQuiAv9f/svNzUVZWZmPI/UtAQEBiImJwWeffYYXX3yR9/IDAwMRHR2NL7/8EiEhIYIegiJZWW02G9RqNbKzszE7O/ufub35+Xk0NTUhLS0NDx8+9FGU4iAiIgKHDx/GJ598wuu+Kblcju3bt+PkyZPYt2+f4DtgJSnrzMwMGhsbcf36dZjN5ieue1ssFpSVlSE9Pd0rqzhiRS6XY8eOHTh16hQ+/PBDBAUFLbsFdIt6/PhxHD9+3Cs7XiUnK0VR6O3txa1bt/DgwYNnvn5sbAxKpRKlpaWr+uaZkJAQxMbG4vvvv8ehQ4ewYcOG514sCA4ORnR0NE6cOIFTp04hKiqK52gXR1IDLI7jMD4+jjt37iAnJ8ej99A0Db1eD4VCgddffx3bt2/32oqO2AgODsbBgwexYcMGxMXFoaqqCsPDwwu38jyLgIAAhIeHY/fu3Th27BiOHTuGTZs2eSHyv5GUrLOzs6ipqUFSUtKSHutzc3OoqamBQqHA2bNnsX79elGcMOIL/P39sWfPHvz+++/Iy8uDSqVCS0sLLBYL5ufn/3NUv7+/P9asWYOgoCC8/PLLOHz4MI4fP469e/cKugCwGJKRlWVZNDY2IjU1FR0dHUt+/9zcHK5evYrY2FgcOXIEYWFhAkQpHUJDQ3HixAkcOXIEra2tqKyshE6ng8FggM1mA8uyCAgIQGRkJKKjo3HgwAG8//77eOmll7x+uIUbychqMBiQnZ2NO3fuPNf7OY7D/Pw8fvnlF+zYsQP79u3z2R9dTISGhuLdd9/F/v37QdM0XC4X5ubmwDAM1qxZg5CQEMjlcvj7+8PPz8+nTyRJyOpwOJCbm4u8vLxlZ6J3d3fj6tWrOHv2LHbt2sVThOLBYDBArVajpaUFgYGBeO+993Do0CFs3Lhx0df/MzMrICAAQUFBWLt27cL/i6m7JAlZS0pKoFarMTQ0tOxcSYqioFarsXv3bpw8edJrI1lvMDQ0hJ9++gnl5eWwWCyQyWSorKxEd3c3zpw580Rh/8lSb1DxJuL52jyBlpYWZGZmQqfT8XI4A/D3/GtqaiqqqqrgcDh4KdPXOJ1OXL9+HcXFxRgYGIDVaoXFYkF3dzfUajWysrJA07Svw1wWopZ1cnISGRkZqKqqwvT0NK9ld3Z2LoyEpX5RncvlglarRVZWFsbGxh77fWiaRl9fH1QqFSorK30Y5fIRrawMw0Cr1UKr1eLRo0e8l+90OlFeXg6NRgO9Xs97+d7CnQehUCjQ39+/6NNndnYWzc3NSEhI4KUr5StEK2tLSwuSk5PR19cn2OPLZDIhPz8fhYWFsFqtgtQhJO7LoZOTk1FZWfnUnaVTU1MoLi5Genr6orkUUkB0srIsC5PJhD///BMNDQ2YmZkRtD53dlZdXR1vfWJvYbPZUFpaipSUlGfGznEcJicnkZCQgNraWklevCcqWTmOw8zMDPLy8qBUKr2SfMIwDBoaGpCRkQGDwSB4fXwxPz+P1tZWxMfHY2xszKOWkqIo9Pf34+LFixgYGJDcgEtUsrpcLnR2duLcuXOYmpry2qPKZrOhrKwMqampgmXT8wnDMOjp6UFKSgpqamqW9F6KoqDVapGWlvafwZjYEY2sHMdhZGQEFy9exMOHD72eITU4OIjMzEwUFhaK/gM0m80oKipa1n2oCoUCNTU1kpq6E42s4+PjUKlUyMrK8lkMer0ely9fFnV3gKIolJeXIykpaVmiWSwWxMXFob29XfRfTjeikNXhcKC6uhrx8fE+7Uc5nU60t7fj/Pnzgp4sshxqa2uRkZGBhw8fLis+juMWzlXt7u7mMULh8LmsLMuitbUViYmJGBwc9GksHMdhamoKeXl5SElJEfREvOehv78f2dnZKCsr42XmYn5+Hjk5OSgoKMDY2BgPEQqLz2Xt6elBdnY2KisrRTE6dc9dXr58GTqdTjTC2u125ObmoqioCFNTU7yVOzY2BpVKhfLyctH8rk/Cp7JOTEzgzp070Gg0vH4Ay4WmabS3t+P69esYHh4WxXaYsrIy5OXlYWBggNfuCcuyaGtrQ25uLpqamngrVwh8JqvL5UJ1dTXUajX6+/t9FcYToWka+fn50Gg0MJvNPo2ls7MT6enpaG5uFuT805mZGZSXlyMnJ8fnXbGn4TNZOzs7kZOTgwcPHoii5VoMs9mM5ORk1NTU8J5I4ynuDLGKigpBl4RHR0dRUFAArVYr2uksn8hqNpuRlZWF0tJS0W+Rbm5uRkZGBtrb272+HEvTNEpKSpCdnS1IMs+/6enpQVZWFhoaGkQ5neV1WZ1OJ4qKiqDRaET9yPknhYWFKCgogNFo9Np0FsMw6Ovrw9WrV2EwGLzy9HE6nWhqakJiYiJGR0cFr2+peFVWjuPQ3d2NxMRESZ2SMj09DaVSiZKSEsETa4C/Bz0WiwWXLl1CQ0MD5ubmBK/TjcViwd27d3Hr1i3RzQ54Vda5uTn88ccfopoS8pSHDx9CpVKhurpa8Eek3W6HVqtFQkKCV74c/2Z0dBR//fUXqqurRTWe8JqsHMchISEBWq1WkrmjAFBRUYH09HT09fUJVofT6URnZyd+/vlnn6XxsSwLo9GIH3/88YnXu/sCr8hKURR0Oh2uXLkCs9ksymVMT3A6nSgtLUVaWppgLZ7BYEBcXBz0er1P/07u/uuFCxd8NhPybwSXlWVZTExM4Pz58xgYGJBcgvM/cV+fo9VqkZuby3v5w8PDyMrKQkFBgc9X8ziOg8PhQFJSEvLz80UxayO4rFarFSqVCsXFxZLrpy4GRVHo7OxEWloadDodb+XabDZUVFQgNTVVNKt5HMfBZDLh2rVraGtr8/nnJ6is7huTExISYLFYJPv4/zcOhwP379/HzZs3MTExsezyaJqGTqdDZmYmenp6eIiQX9zHNhkMBp9+hoLJStM0+vv7kZaWhtbWVqGq8RmTk5PQarXIyclZ9iO7t7cXGo0GVVVVouwmzc3NQaPRoKioyCuLE09CMFndR1NqtVpRTX/wBcMwGBkZwY0bN5Z1AMfExMTCMqfFYuE5Sv4wGo3IyMhATU0N7Ha7T2IQRFaHw4Ha2lpkZmb6PAlESNxHwSsUChiNxiW3sC6XC1VVVVCr1ejt7RUoSv5oaGjA7du30d7e7pMGiHdZGYZBR0cHbt++7dHJ1FLH6XQiMzMTeXl5sFqtS+rT9fb2QqlUorGxUTRzmU+DpmkUFxcjPz/fJ90B3mU1mUzQarUoKipaMQOqp+E+SjMuLg5NTU0eL406HI6FbCqxZjkthtlshkajQWFhoddnB3iVlWEYFBcXQ61WY3Jyks+iRU9vby+uXbuG3t7eZ7aSLMtCrVYjJycHRqPRSxHyR1tbG5RKJRoaGrzaIPEqa319PZRK5Yoc/XuCRqOBSqXC0NDQU1/X09ODK1euiDLp3BM4jsP9+/eRmJjo1TEJb7KaTCakpaWhrq5OEv0vIaBpGikpKSgtLV10idLdZfjtt9/Q1dUlySN83ExPT6OiogLJyclea115kZXjuIXre6SapMIXw8PDSE9PX/RL63Q6kZiYiKKiIthsNkn36VmWxeDgIFQqFe7eveuVOnmRtaqqCtnZ2dDr9StyTnUp0DSN+vr6hSkeN/Pz82hoaIBCocD4+PiK+Du5j9uMj4/3SmL6smUdGxtDYmIiWlpavJokLGZsNhvu3LmDvLw8mEwm0DSNoaEhxMfHo6urS5SrVM+L3W5HVVUVkpKS4HQ6BRV2WbJSFAWVSoWSkpJV//j/N4ODg8jPz8e9e/fw6NEjaDQaaLVan2dT8Y07q849DSfE7ls3z30Bhsvlgk6nw82bNyV3Gp03YBgGbW1tSElJweDgIJRKpaiXU5cDRVELMxxbtmzBrl27BLnQ7blkpWkaIyMjuHr1Ktrb2wX9NkkZu92OsrIyNDc3Y3x83NfhCApFUSgsLMTbb7+Nr7/+GlFRUbzf+rLkboD7PKiCggKoVCpJT794A4fDAaPRuKL6qU/C6XQiISEB9fX1giS7LFlW90l7V65ckezZ9ATh0Ov1SEhIQGdnJ+/9c4+7Ae4mXa/X48aNG891fyphdVBQUIA9e/YgMjKS13I9bln9/PxgtVpRUlLi0wN/CeKHYRikpKSgsrISFEXxdqWmxy3r7OwsKioqcO/ePTKfSngmo6OjUCqVS06bfBoey9rR0YGhoSEMDg6SfirhmTAMg9raWkxPT/M2W+SxrCaTCWazmYz+CR4zNTWF5uZm3srzWNbVMPVC4BeWZXmdwvL5Me0EgqcQWQmSgchKkAxEVoJkILISJAORlSAZiKwEyUBkJUiGx2Qly6gEMbMgq5+fH4KCgiCXP/dOFwJhScjlcgQGBnqclbXwKrlcjsjISOzevRv+/v6CBUgguHn11VexefNmBAYGevT6x1rWyMhInD59GtHR0R4XQCAsFX9/f+zcuRNfffUVtm3b5nHj+NgzPzg4GJ9//jkoikJ9fT2mpqbIrlUCr8hkMoSGhiI2NhbHjx/H+vXrPX8vt8ioiqZpjI+PY3p6ekWcHEIQD35+fli7di02b9685PHRorISCGKEzLMSJAORlSAZiKwEyUBkJUgGIitBMvwPdnr9nSCoOlgAAAAASUVORK5CYII=;rotation=350;" vertex="1" parent="8YiQ8sACHnzhZr1-1O1K-73">
          <mxGeometry x="54.07904164339027" y="49.16212706835495" width="81.09" height="56.43" as="geometry" />
        </mxCell>
        <mxCell id="Dx7y4EGR-CTOSj1UD8kM-11" value="" style="group" parent="Dx7y4EGR-CTOSj1UD8kM-35" vertex="1" connectable="0">
          <mxGeometry x="606" y="145" width="204" height="160" as="geometry" />
        </mxCell>
        <mxCell id="Dx7y4EGR-CTOSj1UD8kM-6" value="" style="shape=image;html=1;verticalAlign=top;verticalLabelPosition=bottom;labelBackgroundColor=#ffffff;imageAspect=0;aspect=fixed;image=https://cdn4.iconfinder.com/data/icons/social-media-and-logos-12/32/Logo_reddit_robot-128.png" parent="Dx7y4EGR-CTOSj1UD8kM-11" vertex="1">
          <mxGeometry x="-29" y="-40" width="168" height="168" as="geometry" />
        </mxCell>
        <mxCell id="Dx7y4EGR-CTOSj1UD8kM-9" value="&lt;span style=&quot;font-weight: normal&quot;&gt;&lt;font style=&quot;font-size: 30px&quot;&gt;이미지 분석 및 정의&lt;/font&gt;&lt;/span&gt;" style="text;html=1;resizable=0;autosize=1;align=center;verticalAlign=middle;points=[];fillColor=none;strokeColor=none;rounded=0;fontStyle=1;fontSize=35;" parent="Dx7y4EGR-CTOSj1UD8kM-11" vertex="1">
          <mxGeometry x="-76" y="110" width="280" height="50" as="geometry" />
        </mxCell>
        <mxCell id="Dx7y4EGR-CTOSj1UD8kM-45" value="" style="group" parent="Dx7y4EGR-CTOSj1UD8kM-46" vertex="1" connectable="0">
          <mxGeometry y="450" width="1270" height="380" as="geometry" />
        </mxCell>
        <mxCell id="Dx7y4EGR-CTOSj1UD8kM-27" value="" style="rounded=1;whiteSpace=wrap;html=1;fontSize=30;fillColor=none;" parent="Dx7y4EGR-CTOSj1UD8kM-45" vertex="1">
          <mxGeometry y="30" width="1270" height="350" as="geometry" />
        </mxCell>
        <mxCell id="Dx7y4EGR-CTOSj1UD8kM-13" value="이미지 검색" style="rounded=1;whiteSpace=wrap;html=1;fontSize=35;" parent="Dx7y4EGR-CTOSj1UD8kM-45" vertex="1">
          <mxGeometry x="551" width="220" height="60" as="geometry" />
        </mxCell>
        <mxCell id="Dx7y4EGR-CTOSj1UD8kM-34" value="" style="shape=singleArrow;whiteSpace=wrap;html=1;fontSize=35;direction=west;fillColor=#f8cecc;strokeColor=#b85450;gradientColor=#ea6b66;" parent="Dx7y4EGR-CTOSj1UD8kM-45" vertex="1">
          <mxGeometry x="814" y="180" width="100" height="60" as="geometry" />
        </mxCell>
        <mxCell id="Dx7y4EGR-CTOSj1UD8kM-43" value="" style="group" parent="Dx7y4EGR-CTOSj1UD8kM-45" vertex="1" connectable="0">
          <mxGeometry x="577" y="110" width="204" height="200" as="geometry" />
        </mxCell>
        <mxCell id="Dx7y4EGR-CTOSj1UD8kM-30" value="" style="group" parent="Dx7y4EGR-CTOSj1UD8kM-43" vertex="1" connectable="0">
          <mxGeometry y="40" width="204" height="160" as="geometry" />
        </mxCell>
        <mxCell id="Dx7y4EGR-CTOSj1UD8kM-32" value="&lt;span style=&quot;font-weight: normal&quot;&gt;&lt;font style=&quot;font-size: 30px&quot;&gt;비교 분석&lt;/font&gt;&lt;/span&gt;" style="text;html=1;resizable=0;autosize=1;align=center;verticalAlign=middle;points=[];fillColor=none;strokeColor=none;rounded=0;fontStyle=1;fontSize=35;" parent="Dx7y4EGR-CTOSj1UD8kM-30" vertex="1">
          <mxGeometry x="14" y="110" width="140" height="50" as="geometry" />
        </mxCell>
        <mxCell id="Dx7y4EGR-CTOSj1UD8kM-31" value="" style="shape=image;html=1;verticalAlign=top;verticalLabelPosition=bottom;labelBackgroundColor=#ffffff;imageAspect=0;aspect=fixed;image=https://cdn4.iconfinder.com/data/icons/social-media-and-logos-12/32/Logo_reddit_robot-128.png" parent="Dx7y4EGR-CTOSj1UD8kM-43" vertex="1">
          <mxGeometry width="168" height="168" as="geometry" />
        </mxCell>
        <mxCell id="Dx7y4EGR-CTOSj1UD8kM-44" value="" style="group" parent="Dx7y4EGR-CTOSj1UD8kM-45" vertex="1" connectable="0">
          <mxGeometry x="957" y="120" width="190" height="180" as="geometry" />
        </mxCell>
        <mxCell id="Dx7y4EGR-CTOSj1UD8kM-37" value="" style="image;html=1;image=img/lib/clip_art/computers/Database_128x128.png;fontSize=30;fillColor=none;" parent="Dx7y4EGR-CTOSj1UD8kM-44" vertex="1">
          <mxGeometry x="40" width="110" height="125" as="geometry" />
        </mxCell>
        <mxCell id="Dx7y4EGR-CTOSj1UD8kM-38" value="DB 사진정보" style="text;html=1;resizable=0;autosize=1;align=center;verticalAlign=middle;points=[];fillColor=none;strokeColor=none;rounded=0;fontSize=30;" parent="Dx7y4EGR-CTOSj1UD8kM-44" vertex="1">
          <mxGeometry x="5" y="140" width="180" height="40" as="geometry" />
        </mxCell>
        <mxCell id="8YiQ8sACHnzhZr1-1O1K-1" value="" style="shape=image;verticalLabelPosition=bottom;labelBackgroundColor=#ffffff;verticalAlign=top;aspect=fixed;imageAspect=0;image=data:image/png,iVBORw0KGgoAAAANSUhEUgAAAKIAAABjCAYAAAAYRtsKAAAWPElEQVR4nO2da0xb5/3Hv8fHN3wHY4MxJuCAYRDMJSgQaLKELaqg3UrTSe3WKetW7aJu1Sbtxd5Ea/eyk/Ziq7qLorRSmy6J1qStUiVrVyULTZrQZIRCuAUIhJuJAWNjYxvb5zz/F539D0vaHF/OsRP8kc6LRMfn+Z2H73luv9/zeyhCCEGWLGlGlG4DsmQBskLMkiFkhZglI8gKMUtGkBVilowgK8QsGUFWiFkygqwQs2QEWSFmyQjE6TbgQYQQAkIIWJbd8P8ikQgURYGiqDRZ9uCSFSIHWJaNXQzDIBwOw+fzwe/3IxQKAQAkEgmUSiWUSiVkMhlEIhFomo6JM8tXkxXifWAYBrOzs7h27RquXr2K4eFhzM3NweVyIRAIYH19HcD/C9FgMGDr1q1oaGjAzp07sW3bNqhUqjS/ReZDZYMe7o3f70d3dzdOnTqFy5cvw+FwIBAIIBQKIRKJgGXZWBcdJdoKSiQSyGQy6HQ6VFdXo7OzE11dXSgoKMi2jl9CVoj/A8Mw6OnpwRtvvIHPPvsMc3NzWF1dRTgcjvtZIpEIOTk5MBqNqKqqwoEDB9DZ2Qm1Wp0V5P+QFeJ/IYRgZWUFJ0+exFtvvYXBwUG43W4wDJP0symKglwuR3l5Ob71rW/hwIEDsFqtkEgkKbD84SA7RsQXk5H5+XkcO3YMb775JoaGhlIiwCiEEAQCAQwMDGBlZQUrKyt47rnnYLfbIZfLU1bOg0y2RQQwNzeHf/zjH/jrX/+K0dFR3svT6/XYv38/fvSjH6GxsRFSqZT3MjOdTd8iulwunD17Fm+88YYgIgSA5eVlvPvuu1AqlVCpVKipqdn0Y8ZNLcRQKITe3l4cPXoU/f39gpa9tLSE9957D4WFhTAajTAajYKWn2lsahff/Pw8/vWvf6G7uzst5U9NTeGDDz7AhQsXEIlE0mJDprBphRhdpjl79izW1tbSZkdfXx8++ugjOJ3OtNmQCWxaITqdTly+fBmDg4NptcPn8+HatWv49NNP02pHutm0QhwYGMD169cRCATSbQomJydx6dKlhBbNHxY2rRCHhoZw8+bNdJsB4IuZ+9DQEG7dupVuU9LGphTiysoKxsbGMmZcxjAMFhcXBVs+ykQ2pRAdDgfm5ubg9/vTbUoMj8eDiYmJdJuRNjalEGdnZ+Fyue4KbE0na2trmJubS7cZaWNTCnFhYQGrq6vpNmMD6+vrWFlZyaiPQ0g2pRCXl5fTunZ4L6JR35t1YTujXHyEEITD4VjgqUgkglgshlgshkiUum9mdXU1FlmdKbAsi3A4nPKoH4ZhYvUJIFanNE1nlH87rUJkWRbBYBCrq6tYXV2Fz+fDysoKfD4fwuEwxGIx1Go1tFotdDodtFotNBoNZDJZUuVGo6wzjVQEQkUiEfh8Png8HqyursLr9W748GQyGdRqNTQaDVQqFbRaLVQqVdojgNIiRJZlEQgEYksWly9fRm9vL8bGxrC0tAS/3w+GYUDTNBQKRSzCuaWlBW1tbbDZbNBoNAkHlmZi5JtIJIJEIkm45WdZFj6fD7Ozs7h69SouXryIgYEBzM/Pb4gwl0gkUKlUMJlMqK6uRktLC5qamlBaWppUnSYNERiGYcjS0hI5duwYeeyxx4hWqyUAOF00TROLxUJ+8YtfkMHBQRIKhRKy4be//S0pLi7mXK4Ql06nIz/84Q8JwzAJ1anT6SR//OMfSVNTE5HL5XHVqc1mI7/5zW9If38/CYfDCdVpsgguxMHBQfLTn/6UmEwmQtM0oSgqrj8YRVFELpeTqqoqcuzYMeL3++O24fe//z2xWq1pF9+dl8FgIC+++GLc78IwDBkZGSFdXV0kLy+PiESiuMsWiURELpeT5uZmcuTIkYQ+hmQRVIifffYZ2b9/f8IVduclFouJyWQir732GllaWorLjsOHD5Pa2tq0i+/Oy2KxkJdeeimu9wiFQqSvr498/etfJxqNJuk6lUqlpKamhvzpT38iLMvGZUuyCCbEmzdvkqeffprk5eXF3Qp+2UVRFNm6dSs5cuQIcblcnG05c+YMaWtrS7v47rxsNhv5y1/+wvkdwuEwGR0dJd/+9reJUqlMWZ1KJBJSU1NDjh8/nvDQJxEEWUeMRCJ4/fXX8cknn8DtdqdsskAIweTkJA4fPoyBgYFY1oX7YbFYoNfrU7oklCwqlQpms5nz/U6nE0eOHMG5c+fg9/tTVqfhcBjj4+N49dVXMT4+LlhEEO9/iUgkgt7eXrz//vtYXFxMueeAZVlcuXIFH330EWcXWVFREYqLi6FUKlNqS6JQFAWNRgOLxcLp/rW1NfT29uL48ePwer0pXwWIbqE4efIkfD5fSp/9ZfAuxPX1dZw4cQKTk5O8fV0+nw8ff/wxRkZGOK0PajQa2Gw2FBYW8mJPvMhkMhiNRhQVFXG63+Fw4OOPP8b4+Dgv9hBCEAwGceLECczMzAiy5sqrEKPhTf/85z8RDAb5LApDQ0O4fv063G73fe+laRo1NTUoKyvj1SauaLVabNmyBbm5ufe9NxKJYGpqCufPn+fVL82yLIaHh9Hf3y+IO5RXIa6vr2NkZATj4+MpdV3dC6/Xi6GhIc7dc1VVFSorKzNig7vBYEBFRQWnxWSfz4eJiQneWsM7CQaDuHr1KjweD+9l8S7EoaEhBINBQbwZU1NTcDgcnO4tLCxETU0NiouLebbqq6EoCkVFRfja177G6X6Xy4WJiQnBxm5DQ0OClMWrEEOhkKDBnk6nEy6Xi9O9YrEY1dXVad/cLpfLUVpaioqKCk73u91uQeMWowHEfDckvAoxEolgcXFRMN+uz+fD2toa57GTzWaD3W5Pq8PfZDKhpqYGBQUFnO5fW1vj/LGlAq/XG/P98wmvQmRZVtBw/HA4jFAoxFmIRqMR9fX1KC8v59myL6eiogI1NTWc7w+FQoLGUoZCIYTDYd4DdnlfvqFpmu8i7oJrC0xRFMrLy9Hc3MyzRfcmJycH27ZtQ3V1NeffRNMnC0U0JzjfwxdehUjTNFQqlWBjMJqmY3mruVJSUoIdO3ZAp9PxaNm9sVqtsNvtMBgMnH9DUZSgHiGFQgG5XM57mbwLMT8/n88iNiAWi+OO6VOr1aiurkZ9fT2Plt2bxsZG1NbWQizmHhYaTY0sFDqdDgqF4sEWokQiict/mixSqRRSqTSuFpimaWzZsgW7d+8WdBhRWFiIHTt2wGq1xvU7qVQKhULBk1V3YzabkZOT82B3zVKpFFu2bBGsK4l2I/FiNBrR2tqKLVu28GDVvWlqakJ9fT00Gk1cv5NKpYL6yCsqKgQRPu8tYmlpKZRKpSDjRLVanVClyeVyVFRUYM+ePTxYdTdarRbt7e2oqKiIu15ycnLiFm+i0DSN6upqQY7nEKRrLikpEaTbi24ESoT8/Hx0dHRAq9Wm2Kq7aWxsRHNzc0LjZ6VSCb1ez4NVG6EoCnl5eaiqqnrwW0SRSAStVgu73S7IADsvLy/h1kKlUmH79u3YsWMHr0MJhUKBxx9/HFarNaGPU61Ww2g0xjXBSQSKolBTUwOLxSLIgj/vgzeJRIJdu3bxHlxAURSMRiOnCJZ7IRKJoNfr8Z3vfAdyuZy3oUR9fT3a29sTTlUcDaDle7mJpmns3r1bsOU3wYSo0Wh4b2nMZnPCQgS+6PY6OjpgtVp5aXFEIhGeeeYZWCyWhOtCLpfDbDbzOrGiKAoymQx79+4VbIYuiGelsrIS9fX1yMnJ4a0cs9mM0tJSqNXqhJ8RXffs6OhIua0ikQhWqxXt7e1Jj0Pz8/NRV1eXIsvuRiKRwG63w263J53MgCuCrKvQNI19+/bxOhGora2F2WxOutUVi8XYs2dPyocSNE2jra0NBoMh6dbWYDCgpaWFt7GbQqFAZ2cnFAqFYF4xwXxF7e3tsFgsvExapFIpmpubOe/5+CpomsbWrVtTPpSgaRp1dXUpEbhOp0N9fT3sdnsKLNsITdMwGo3o7OwU1IMjmBDLysrQ2tqKvLy8lD+7rq4OTU1NKVvWUCqVkEqlKRUiRVEp2zlI0zQsFgueeOKJlLdYKpUKO3bsQGVlpaA+bcFKksvlePTRR1FSUpLSF8zJycETTzwBm82Wki+YEAKPxwO/35/S0CdCCNxud8qemZeXh46ODjQ2NqZ0jVav16Ojo0PQbhkQOD9iU1MTtm/fntJWcc+ePXj00UfjimD5KhiGwaeffgqv15tSITIMg8uXL8Pn86UkUFgqlcJms+H5559Hfn5+Sj5uhUKByspK7Nq1K+lnxYugQtTr9di3bx/Ky8uTrjiaprFt2zb85Cc/QWVlZUoG7qFQCMPDwzh+/HjKg08jkQg++eQTdHd3pyxbrVKpxJNPPomuri7odLqkWzCj0Yjdu3cLGqgSQ7CcEv9lYWGB/PznPye5ublJ5Wix2+3kb3/7G/H5fEnbxLIs8Xq95NKlS+SFF14gUqmUt9Qie/bsIe+88w5xOBwpybzFMAwZGBggTz31FMnNzU049YhYLCZ79+4lPT09SduUCPTLL7/8csrV/RWoVCp4vV7cuHEj7k1AFEVBqVTCbrfjhRdewA9+8IOk1vvuzCl46dIlHDp0CG+//TavaTampqYwMTERO0xcIpFAIpEkPM6LepRKSkowPz+PxcXFhHZN6nQ6tLe349lnn01PjsR0qH94eJh873vfi+vrpSiKqFQq0t7eTk6fPp1w2SzLkmAwSFZWVsj4+Dg5efIkef7554nZbBY06ZJSqSTt7e3kD3/4A+np6SEOh4Osrq6SUCiUcCauvr4+8txzz5GCggJC03Rc9lRVVZHXXnst4XpNlrRkjDUajSgsLIRMJuOcAUIqleKRRx7BwYMH0dbWFld5LMvG9nr4fD6MjIzg3Llz+PDDD9Hf35+WEwbW1tZw9uxZdHd3w2Qyobm5Gd/4xjewc+dOlJWVQSaTxbY9cB1P19XV4Xe/+x30ej3efvtt3L59m3PLqNPpOKc84YO0pS5mGCauTU6PPPIIfv3rX6OlpSWuskKhEGZnZ9Hb24sLFy6gp6cHY2Nj8Hq9YBgm7cdJRCIRzM7OwuFw4IMPPoBGo0FlZSVaWlrQ2tqKuro6FBUVcXa1WSwW/PKXv4REIsGhQ4ewvLzM6XfkixSFybxKUqRFiMPDwxgfH+ecRm779u04cOAA2tra7juW8vv9mJ2dxfXr13Ht2jV8/vnnGB8fh8vlQiAQQDAYRDgczqg82oQQRCIRRCIRhEIheDwe9Pf3480330R+fj4qKirQ0NCApqYmbNu2DSaT6UvHcdHMEc8++yy8Xi8OHz7MqddZWFjA8PAwurq60pJwQHAhjo2N4dixY7hy5QonMRiNRjz++OPYt2/fPScm0RZlcHAQfX19GBwcxNTUFBYXF+Hz+eD1ehEMBgXdgpkMLMtifX0d6+vr8Hg8WF5exq1bt9DT0wOtVovCwkKUl5ejtrYWjY2NsNvtUKvVG8RD0zQqKirw5JNPYnJyEqdPn75vuQ6HA2fOnEFdXR0ee+wxPl/xnlBEoKbB4/Hg/PnzOHHiBM6dO4f5+XlO4ti/fz9+9atfobW1NdYaEkLg8/lw4cIFnD9/HkNDQ7EZo9vtht/vz8jjK5KFoqjYqQB5eXkoKChAeXk59u7di3379qGgoGBDj+FyuXDy5Em89NJLmJ+fv+/z1Wo1Ghoa8NRTT6GzsxNlZWWCbSjjTYgsy2JtbQ3T09Po7+/HlStXcOXKFQwODsLj8XAam5lMJhw8eBDf/e53Y3GGoVAIk5OT+Pvf/45///vfuHHjBpaXlzflWcfR5azy8nK0trbimWeeQUNDQ2y7BMuyGBgYwCuvvIKjR49yeqZMJkNpaSkaGhrQ0NAAu92OyspKmEwmXoObU9Y1h8NhrK6uwul0wuFwYHZ2FlNTUxgbG8PIyEhsghDP5KCpqQkNDQ2xaORIJIKbN2/i0KFDOHr0KBYWFjJqrCc00Z6hr68Pk5OTcDqd+PGPf4ydO3dCrVZDJBLBYrHgm9/8Jk6dOsUpq9f6+jpGR0cxMTGBixcvoqKiAjabDTabDVarFRaLBSaTCbm5uSkVZlJCDAQCMdHNzMxgenoat27dil3Rw2YSEYtcLkdbWxtKS0tj45/FxUWcOXMGb731FhYXF5Mx/aHD4/Hg1KlTyMnJQW5ubiwYQqPRoLa2FlarFf39/ZyfF4lEMDMzg5mZGXR3d8NgMKC0tBRbt25FWVkZSkpKUFRUhIKCApjNZuj1eojF4oQnOnELkRCCQCCAyclJDA4O4j//+Q/6+vowNjaG27dvIxAIpKSVMpvNsNvtsdAuhmEwOjqKd999NyvCL2F9fR0ffvgh6urqYLVaY+IwGAyor6+PS4h3EolE4HA44HA4cOnSJUilUuh0OlgsFthsNtTW1qK2thaVlZUoLi5ObM9PPKvfkUiE3L59m5w+fZp8//vfJ4WFhXGv4HO9urq6SH9/f6xst9tN/vznPxONRiOoB+RBvJ5++ukNPmOn00leeeUV3soTiUSkrKyMvPjii+TcuXPE7XbH7R3iHALDsixu376NEydO4Gc/+xmOHDmChYUF3pZF6urqNmyEcjqdGB0dzbhzljORmzdvYmZmJvZvuVwOq9XKW6Ary7KYnJzEq6++ioMHD+LChQsIBAJxPYOzZW63G2fOnMHBgwcxPT0dt7HxIBaLYbPZNmyEWlhYECRv9MPAysrKhrzXUqkUZrP5rvVGPrh48SJef/11fP7553EN0TgL8caNG3jnnXewsrKSkIHxoNfrYbFYNixgLy8vY3Z2lveyHwb8fv+GQ8glEgny8/NhMBgE8Zp0d3fj6tWrcSVp5STEUCiE6elpXL9+XZDlkoKCAuj1+pgbKxwOw+VyYWlpifeyHwb8fj+8Xm/MhSoSiaBSqVBcXCzIPhSXy4Xh4eG4Gg5OVnm9XszMzMDpdCZsXDyYTCbIZLLY1xv1v3q9XkHKf9BZX1+Hz+fb4GOOJsQSokVkWRbT09OcT3gAOArR4/HA4XBwDlJIFqPRuMGpH61Yocp/0AmHw/B6vRsmDGKxGGVlZYLtzHM6nXH1YJxbRK7hRKkgPz9/gxDD4TCCweBD6T/mA4Zh4Pf7N4zRoi2iUEL0eDxxrXBwsmptbY3T0WKpIjc3d4OznWEYRCKRtMcOPigQQuD3+zdsABOLxbEEB0J0z9Hyuf7NOAnR7/cLun6nUqnuivrYzD7lRFhbW9vgW6ZpGkVFRYJl9wqFQnEdNcJJiIFAQNCJglKp3NCFiEQiiMXijDpfOdOJzpyjRNPuGQwGwUK74mk8OPmao4e+8J3UO2q4RqPZUFnRGDy1Wp2dsHCAEAKWZTfMmqNLOKWlpZienkYwGOTtb0kIgUKhiCux/n2FSAiBVqtFTU0N8vPzef2aovsmiouLN0xWcnJyYLPZ0N7ejmAwmG0Z70MkEoHVar0r+xpN09i1axcikQjC4TBvQmQYBvn5+bBYLJzL4BQYyzCMoKH29xpQR7/yLNy51+FA0Q1jfI+5KYqK6/AlwbYKZMnyVWT7uCwZQVaIWTKCrBCzZARZIWbJCLJCzJIRZIWYJSPICjFLRpAVYpaMICvELBnB/wG3WHCHZyO5KgAAAABJRU5ErkJggg==;" vertex="1" parent="Dx7y4EGR-CTOSj1UD8kM-45">
          <mxGeometry x="65" y="118" width="284.73" height="174" as="geometry" />
        </mxCell>
        <mxCell id="8YiQ8sACHnzhZr1-1O1K-3" value="" style="shape=image;verticalLabelPosition=bottom;labelBackgroundColor=#ffffff;verticalAlign=top;aspect=fixed;imageAspect=0;image=data:image/png,iVBORw0KGgoAAAANSUhEUgAAAG0AAAAdCAYAAACg2uKXAAACGklEQVRoge3Yv6t5cRzH8dfxKw4GMjgGZeSeJBP5UcpwJGUw2P0NNguDQQb/hf/BH6BsFgwmRwo5DAb51efO30Jcl3s/3/t+lOmc3r3rWZ+Tj8AYYyBc0f30AuRxFI1DFI1DFI1DFI1DFI1Dhp9e4H/HGMP5fAZjDAaDAYIgPD2Tor2YpmnodruYTCYoFAqQJOnpmXQ8vhhjDOPxGNVqFZlMBs1mE9PpFOfz+cszKdobHA4HaJqGwWCAVquFfD6PRqOB4XCI/X7/8Dw6Ht/odDphNpthNpthvV6j0+kgnU5DURT4/X6IonjXHOHW3WOtVsN8Pv+2pf+i3W6H0WiEXq938bnP54Pf70c8HkcqlYIsy7DZbDdn3owWCAQwGo2e25rcxev1IhwOIxqNIpFIQJZl2O32i+/S8fhLqKoKVVXR7/ex3W4hSRJF++2sViu8Xi+CwSA8Hg+MRuPVd29GC4VCcDgc377gX3I8HrFYLKCq6sXnoihCkiTIsoxcLodsNgu32317KCMvtVwuWb1eZwD++ZnNZuZ2u5miKKzdbrPVanX3TDoe30gQBOj1ephMJkQiEZTLZcRisavfrmso2htZLBYkk0lUKhUEg0GIogid7vH7DYr2Bi6XC8ViEaVSCR8fH3A6nTCZTF++PL75P40873g8YrPZYLvdwuPxwGKxPD2TonGILow5RNE4RNE4RNE4RNE4RNE49An1JjI//auTNwAAAABJRU5ErkJggg==;" vertex="1" parent="Dx7y4EGR-CTOSj1UD8kM-45">
          <mxGeometry x="368" y="160" width="167" height="44.43" as="geometry" />
        </mxCell>
        <mxCell id="8YiQ8sACHnzhZr1-1O1K-5" value="" style="shape=image;verticalLabelPosition=bottom;labelBackgroundColor=#ffffff;verticalAlign=top;aspect=fixed;imageAspect=0;image=data:image/png,iVBORw0KGgoAAAANSUhEUgAAANAAAACyCAYAAAAzmEElAAAgAElEQVR4nO2daXBT1/n/v1f7lWStXuRF3vAC2NiO8RYgIUDiQhKgIQGapgRsAiSEpClMQ0hLf9MXaRuapO2LZKZtps2kpck0nUnTLNChbULZsxgDNnawAeNVlm1JtmWtV9L/Rebqj5vFuvdKlgTnM+M3tu59zrHO9yzPec5zqFAoFAKBQOCFKN4FIBCSGSIgAkEAREAEggCIgAgEARABEQgCIAIiEARABEQgCIAIiEAQABEQgSAAIiACQQBEQASCAIiACAQBEAERCAIgAiIQBEAERCAIgAiIQBAAERCBIAAiIAJBAJJovGRychKDg4OwWq1wuVyQyWQwGo3IzMyEwWCAWCyOhhkCISLY9jgyMgK32z2tPer1eohE0Rs3eAvI6/Xi888/x9GjR9Ha2oq+vj5MTk6CYRiIRCKoVCpkZGSgpKQE1dXVWLhwIbKzs0FRVNQKTyAAQDAYxPj4ONra2nDmzBlcvHgR/f394fYoFouhUqmQmZmJ8vJy3HrrrVi4cCHUarVg2xTXpCIejwfd3d04cuQIjh49is7OTgwNDcHpdCIYDIY/JxKJIJfLYTQakZubi5KSEtTV1aGhoQElJSVQKpVETARBeDwe9Pf3o6WlBadPn8aFCxdw9epVWK1WTE1Nfak90jSN9PR0FBcXo6amBqtWrUJNTQ0UCgXvMkQsoFAohOHhYZw4cQLvv/8+/vvf/+Lq1avTCvm1RigKMpkM+fn5qKqqQk1NDaqrqzF37lykpaVBKpXyrgAfGIaB2+2Gy+XC1NQUpqam4PF44PF44PP5wDAMAoHAtLpRFAWRSASJRAKpVAq5XA6FQgGapqFSqaBSqaBUKiGTyaI6RRBKKBSC3+8P19fpdMLlcsHj8cDr9U6rbygUQigUAkVRoCgKYrH4S/VVKpVQq9VQKpWgaRoymWxWO8JQKASHw4Hu7m60traipaUFZ8+exeeffw6HwxHRO8RiMQwGAxoaGrB69Wo0NjYiKyuLVzuMSEDBYBA9PT344IMP8Ne//hWffPIJPB4PZ2PAFw3RZDKhqqoKdXV1WLBgAYqKipCVlQW9Xg+JJCrLMgD/XyiTk5NwOByw2WxwOByw2+2w2WwYGxvD+Pg4nE5nWERerxd+vx8MwyAYDH5lg5LJZNPEk5KSAoPBAKPRCIPBAJ1OB71eD51OB61WC5VKBblcHnNh+f1+uFwuTExMwG63w263h+s7NjYGm80Wrq/b7Ybb7YbP5wvX96sEJJVKIZPJQNM0aJqGWq2GVquFXq+fVl+2zhqNBiqVClKpNGrCCoVCcDqdGBoaQk9PD9ra2vDpp5+ipaUF165d490WAaC0tBTr16/H/fffj9LSUtA0zen5iATU29uLN954A6+99ho6Ozt5F/Z/UalUKCwsRHV1NaqqqlBcXIyMjAzodDqkpKRAoVBAJpNBLBZP+zLYLzoYDIJhGDAMA7/fD6/XC7fbHR5VxsfHYbVaMTAwgP7+fvT392NgYACjo6OYmJiAy+UCwzBRqYtCoYBarYZer4fJZEJ2djZycnKQlZUFk8mE9PR0pKSkQKlUQqVShesmkUggkUjCdWR/roet6//W1+PxwOVyhX/sdjssFgsGBgbQ19eH/v5+DA0NYWxsDJOTk3C5XBHNGGZCJBJBoVBAo9HAYDDAZDIhJycHZrMZmZmZyMzMhNFoDI/MNE1Pq69YLIZYLA53KGx92XpeXze24+vp6cH58+fxySefoKOjAw6HIyp1AQC9Xo/vfe97aG5uRllZGaeRaEYBeTwevPbaa3j55ZfR1tYmuLBfh0KhQFZWFkpKSlBaWoq8vDykpaVBq9WCpunwyHS9cHw+H9xuN5xOZ3iUGR4exuDgICwWC6xWK0ZHR780H55NpFIptFot0tPTkZmZCZPJhKysLKSmpkKj0YSnQwqFAlKpNNywKIoKdxSBQGBaB8HW12azwWKxYGhoCBaLBcPDw7Db7fB4PHGrr0wmC4vKZDKF62w0GpGSkgK1Wh0WlFQqhUgkCtc3EAjA4/FgcnISo6OjGBgYwKVLl3Dp0iX09PTE9HvU6/V46qmn0NTUBLPZHPFzMwqovb0dP/rRj/Dee+8hEAgILigX2Lm3XC4PCygYDCIQCIR/2N54tssWDSiKCq8xru+Z2dGIFRC7Rrl+9ImXQIRw/RqSnQ5fPxJd31H4fL5Zr2NtbS2effZZrF27NuLp54wLjvPnz6O3tzcuDdTv98Pv98PpdM667dmAXeD7/f54F2VWCAaD8Pl88Pl88S7KV3Lp0iV0dXXB5XJBpVJF9MyMq1q73Q632y24cARCouP1euF0Ojk5JWYUkE6n4+yZIBCSEblcHnbwRMqMAiouLkZaWpqgghEIyUB2djbMZjOnAWNGARUVFWHu3LnQ6XSCCkcgJDrl5eWYM2cOp/26GT+p1WpRV1eHoqIiQYUjEBIZNjKhoKCA03MzCkgkEqG+vh61tbVRCb4jEBKRhQsXorq6GgaDgdNzEcXN5OXlYdGiRTh9+jTOnj0b8ctJsCghXnCJkdZqtfjWt76FkpISzkdvIhKQVCpFbW0tFi9ejM7Ozojc2mq1Grm5ucjOzk7KTT9CciISiTA1NYXz589HvH94yy23YPHixUhPT+dsL+LIzYKCAixZsgQfffRRRCE9OTk5ePjhh7Fhw4abZqOQEH8kEgkuX76MXbt2oaura8aRSKFQYM2aNSgoKOB18DNiAclkMlRUVOD2229HR0fHjJEJcrkcGRkZnBdlBIJQAoFA+JjFTAKaO3culi1bhtTUVF62OMXX5+fn47bbbkNGRsaMn2WDPgmERIWiKKxduxbZ2dm80w5wEhBN0ygpKUFDQwMvYwRCokBRVNh5oNFoeL+H8wmvzMxMNDQ0EA8bIalhHWNz5syBTCbj/R7Oxz/1ej3KysqQlpYGq9XK2aDT6cRHH32EkZERBINBIkQCL4LBINLS0lBRUcFrnS2VSnH77bcLzs3BWUByuRwmkwkFBQW8BDQxMYG//OUvuHDhQtROgxJuThYsWACZTMZLQDKZDDU1NYLzcXAWEEVR4T2eM2fOcDbo9/vR09ODzs5OIiCCILRaLSYnJzk/JxKJoFarebuup72Lz0MymYzXphOBEG34TL9EIhFSUlKg0+kEJ3rh9bREIon4xB6BkGiwSVGEOA/C7+L7IFn8E5IZNs+f0HbMS0BsogsCIRlhMx2xySSFwEtAgUCA5EkgJC2hUCicQFMovAV0o2bKIdz4BIPBcGbWuIxAPp8PY2NjggwTCPEiFAqFUyDHTUCjo6OCDBMIseSbnAOhUAg+nw+Dg4OC8x1yFhDDMHA4HBgaGhJkOBawCdGJh5AwE4FAAJcvXxYsIM6RCG63G4ODgwkxAkmlUuTk5KCiogKFhYVIS0uDXC6H3++Hw+FAb28vOjo60NXVRdZshGkwDIP29nbBjgTOApqYmMCVK1cEXSkhFJqmUVRUhBUrVqCurg75+flITU2FWq2GRCJBMBiEy+WCzWZDX18fLly4gKNHj+LkyZPEe0gA8IWA2tra4Ha7odFoeM9aOAvIZrOhs7Mzbofl0tPTsWTJEqxduxaLFy9Gfn7+18YzFRQUoLKyMnyl37x58/D222/DYrEkZTJ6QvQIBALo6uqCxWKB0WjkHVTKSUDBYBBWqxUdHR28jAklMzMTK1euxObNm3HrrbdGFIohkUiQkZGBxsZGzJs3DwaDAQcPHkRvby/J1XCDEsloEgwGMTo6iosXL6KwsJC3gDg5EdxuN/r7+9HT08PLmBB0Oh0aGxuxY8cOLF26lHMck0QiQX5+Pp566ils3LgRJpMpoa5iJMw+DMOgpaUFLpeL9zs4tSC73Y6rV6/CbrfzNsgHsViMuro6PPjgg6irq+P9HoqioNfrsXPnTtx2223QarVRLCUhGWltbYXT6eS9H8RJQKOjo+jp6Zn19U9aWhrWrFkTtaPk2dnZ2LRpE0pLS8kodJPT3d0Nh8PBe03MqfWMjY2ht7eXlyEhLF68GLW1tVEdMZYuXYra2lqSNP8mx2q1or+/n7dXmZOAHA4HLBYLL0N8kUgkWLRoEfLz86P6XpqmUVdXh7y8vKi+l5BcuN1uDA0NxV5ADMNgYmICExMTvAzxJSsrC8XFxTEZKebNm4fMzMyov5eQXFit1tgLyOfzwel0zvpGpMlkgsFgEJz84avIyMhAampqTN5NSB5sNhvve1sjFpDf74fb7Z71C2L1ej0UCkVM4ttUKhU0Gk1UjvYSkpfJyUneB0QjFlAgEIDP55v1k6jXX4MebUQiUVSO9RKSG6/XG3svXDAYRCAQmHUX9tTUVMwiBrxeL1wuF4lIuMnx+/2zsw8k9PARH6xWKyYnJ2MSu2az2WC324mAbnJCoVDsBRStLCZcGRwcRG9vL6ampqL+7suXL8NisZBbJG5yhJwhi1hAIpEIEolEcCZHroyPj6OlpQWDg4NRfa/X60VLSwv6+/uj+l5C8iGVSnmvsyN+SiKRQC6XQyLhfAJCMMeOHUNHR0dUp1rd3d04depUQp6sJcwuSqWSd7uOWEAymQwqlQoKhYKXISGcP38ehw8fxqVLl6KyDmMYBm+99Rba2tpm3S1PSDy0Wm3szwPJZDJoNBoolUpehoQQCoXwzjvvIDc3FyaTCUajUdD7/vGPf+DNN98k0zcCgC8Oacrlcl7PcnIiaDQa3ndJCmV0dBR//vOf8cc//pF3Si2GYXDo0CH87Gc/Q09PT1y8ioTEQiQSISMjg/fMitPKyWAwIDs7m5choQQCAVy5cgWvvvoqfvGLX6C9vT3iZ9mTtL/73e+wb98+tLe3k6kbAcAXBzWzs7NB0zSv5zmtnIxGI3Jzc3kZigY+nw+XL1/GG2+8ga6uLtx1111YunQpCgsLQdP0l1yRHo8Hg4OD+Pjjj3HkyBEcP34cV65cIXm9CWHMZjMyMjJmJyeC0WhEfn4+FApF3LLyMAyDwcFBHDlyBJ9//jn+9a9/oaSkBGazGQaDIZzWanx8HIODg7hy5Qo6OzvDB6cIhOspKyuDRqPh7cbmJCCNRoOCggKYTKa45EVgYVOzdnZ24tKlS9BoNEhLSwsHhjIMA6fTibGxMTgcDjJdI3wt1dXVghxjnAQkk8mQmZmJ4uLiuAroeoLBIBwOBxldCJygKAo0TaOyslKQgDiPW0ajEfPnz+dtkEBIBEQiEcxmMwoLCwUdZ+EsIL1ej5KSklkP6SEQuDBTbJtEIsG8efOg1+sFtWXOAlKr1TCbzdBoNLyNEgjxRiKRoKKiQnBoGmcBsTd0k1wChGRGIpFg/vz5go/zcxaQSCSCSqUi19wTkhqJRAKz2Ryfa+5lMlncQnoIhJmYaf1DURTkcjlSU1PjIyCJREISEhKSFpFIBKVSCZVKFZ9r7iUSCVQqlSDDBEK8EIlEUCgUkMlk8REQRVEkFRQhaaEoClKpNCqHQ3m9gb2LlJDcUBSFsrIy+P1+DA4OYnJyMt5FmjXY/B5CRyDeEiRnaZKfBQsWoKmpCRRF4b333sOpU6dikrwlUWGz8QgRES8BBYNBkgoqiaEoCiUlJdixYwceeOABKJVKpKamIhAI4MyZM4IunEoGQqEQGIaJSjYm3gIil/UmJ2KxGGazGU8++SQeeuih8JUxa9euhVgsRiAQwCeffHJDf7+hUAg+ny8qgwAvJwLDMDfVfPlGQSKRIDc3F08//TSam5un3bekVquxevVqPPnkk6iqqrqhnUTsLe5ut1vwUoSXgHw+H0ZHRwUZJswubPTxD3/4Qzz22GNfmQNApVJh1apV+PGPf4zy8vIb9vY+9jzZ+Pi44Gkcr/+Q3+8nAkoy5syZg6effhqPPPLIN35OqVRi6dKleP7551FeXj5LpZtdQqFQ2PM46wLy+/2w2WwkIWESUV5ejt27d+Ohhx6KKHhSqVSivr4eL730EiorK+OSTDPWBAIBdHd3C86PwVlALpcL/f39vFNLEWaXqqoq7Ny5Ew888ABSUlIieoaiKKjVatTX1+OFF15AdXU177xpiQrDMLhw4cLsC2hiYgJXrlyB1+sVZJgQexYuXIjt27fjvvvu4xz8S1EUVCoVFi9ejJ/85Ceoq6uLS1LNWMEwDNrb2+FyuQQ5EjgLyGazoaOjg2ykJjg1NTXYunUr1q5dC5PJxOsdbN6AZcuW4fvf/z7q6+tvmBjIQCCArq4uDAwMCHJnc5rcBgIBDA8Po7Ozk7dBQuyprq7G1q1bsWbNGmRlZQl+n1KpxMqVK8EwDMRiMU6fPg2n0xmFksaPYDAIm82G9vZ2FBcX83bbcxKQy+VCX18frl27xssYIfZUVFRg27Zt+Pa3v8175PkqVCoV7r33XgSDQVAUhVOnTt0QImppaUFjY+O0PTEucBKQ3W7H1atXZ/2q+0SAoiikpaVBKpXCZrMl3E49RVEoLS3Fzp07sW7dOqSlpUXdhkqlwpo1a0BRFEKh0A0RO3fu3Dk4nU7eMXGcBDQ6Oopr167dlDe6paenY82aNdDr9Th69CjOnj2bMAkb2ePJP/jBD7Bx40bevWkkqFQqrF69GmKxGAzD4MyZMwnXmXDhypUrsNlsYBiGV34ETgIaGxtDb28vZyPJjlarxXe+8x1s374dWVlZmDdvHn71q1/h4sWLcc+zfX14zubNm2fF3axSqXDPPfdAJpPhhRdewMcff5wwnQlXRkZGMDAwgLKyMl4C4uSFGx8fh9Vq5WwkmZHJZGhubsauXbswf/586HQ63Hfffdi7dy8KCwvjGu4iEonC4tmxY8es7tUolUo0NjZi//79qKqqStqwH4/Hg6GhId6jaMS1ZhgGExMTGB8f52UoGaEoCk888QSefPJJFBYWhn+v0Whw991347nnnkNeXl7cyldcXIy9e/eiubk5LvZpmsaSJUvw/PPPo6qqKi5liAbDw8O89zUjFpDX68Xk5GTcbmWYbeRyOfbs2YNdu3YhJydnWg/LXja2fPly/PKXv0R+fv6s98AVFRXYvXs3HnzwQcG5zYRA0zRqamrw4osvorq6OinDfux2O+8paMTfut/vh8fjSdq5Lhd0Oh127dqFxx9/HDk5OV/ZKEQiEXQ6HZYtW4YDBw6gqKho1hpPdXU1Hn/8cdx///0Rh+fECjZioba2Fi+++CJqa2vjco+uEJxOJ++1bMQCCgaD8Pl8CAQCvAwlCxkZGWhubsbOnTuRm5v7jaJgRXTXXXfh//7v/zB//vyYn6Opra3F9u3bsXbtWsF3xUYLiqKgVCrR0NCAn/zkJ2hoaIh7xAIXl7TX6+XdriPuMoPBIAKBwA3tws7JycGGDRuwbdu2aWueb0IkEkGr1eKee+6Bx+PBK6+8gvb29phMddnwnNWrVyMjIyPq7xcCRVFQKBRYunQpPB4PXn755aSJWGAYhndoWvJNWGMARVHIzc3FunXr0NzcjLlz53J+XqvV4r777oPf78cf/vAHnD9/PqoiWrhwIR555BGsXr06KuE5sYKmaTQ2NobDfk6ePJnwp5dnJakIRVHhVEA3Eqx47r//fjQ1NaGsrIz3u/R6PdavX49gMIjXX38dra2tURFRZWUltm/fjjVr1kQ1PCdWKJVK3H333eHd/RMnTiS0iKRSaeyveBSJRJBKpTdUPjiKopCTk4MHHngAW7ZsicoJTIPBgI0bN4bDXVpbW3m7SCmKwty5c/H444/zOpIQT5RKJe65557w/+HEiRMJO51Tq9W8HUARPyWRSCCXy+PqMo0mFEXBZDJh48aNaGpqiuqtewaDARs2bIBIJMJvf/tbtLW1cfZeSiQS5OXlhcNzkvE+JlZEbLafkydPzkrKLK6zpNTUVN6b0BELSCaTQa1WQ6FQ3BCbqXq9Hps2bcLWrVtRUlIS9fcbDAasX78eEokEv/71r9HR0RGxq1QikSA/Px/PPPMMNm3alNQZcmiaxsqVKyGTyeD3+3H69OmEOoxJURSysrJA0zSv5yOe+MlkMqSkpNwQpxJpmsajjz6Kxx57LCbiYdHr9Vi3bh327t2LgoKCiObZIpEI+fn52Lt3L7Zu3ZrU4mGhaRorVqzA/v37UV1dnVDLAKVSCbPZHHsBsZ6mWITJzyYSiQR79uzBo48+OithOKyL+7nnnkNubu6Mn2fDc7Zs2RLzss0mCoUCixYtwoEDB7Bw4cJ4FydMbm4u8vPzYy8g4ItpSU5ODi9DiQBN09i3bx+2bduGrKysWfEosmE/K1aswIEDB74x7KeiogJ79uzBxo0bkzIkZiYUCgVuueUWvPjii6irq0uIOtbV1UGn0/H2wnF6ymg0RtSLJhoURcFoNGLPnj3Ytm0bsrOzZ3UawUYs3HHHHdi9e/dXhrrU1NRg165dWLduXdzDc2IFG7FQXV2NF154AQ0NDXEN+6EoCnfccYcgBw1nARUUFCTVOohdJO7YsQOPPPIIcnJy4jIHDwaDGB8fx6effvolZ0J9fX14nydRwnNiBZuopK6uDvv378fixYvjEvYjFotRWFiIuro6QfY5CSglJQX5+flJc0M3u0m6adMmNDU1IS8vLy4bwX6/H93d3XjllVfwz3/+c1oWmLq6OmzduhX33ntvwoXnxAr2jtLbb78dTz31FJYsWTLro65MJsOKFSuQmZkpaCrJ6UmpVAqTyYTS0lJcvnyZt9HZgKIoFBQUYP369diyZQuKioriUg6/34/Ozk68/vrreOONNzA8PBz+Gxvbdu+99yZNpxRNFAoF7rzzTvj9fojFYhw/fnxW8m2wiSPvvvtu3s4DFs7SMxqNmDdvHj744ANBhmMJRVEoLCwMRxiUlpbGpRx+vx8dHR04ePAgDh48CIvFEv5bVVVVeNp2s4w8X4VCocDKlSvDYT/Hjh2LuYikUilyc3NRX18veJuAs4B0Oh2Ki4shkUjing/gq6AoCnl5ediwYQMefvhhzoGh0YIdeQ4ePIg//elP4VziIpFoWnjOjb7miQSaprFq1apw2M+xY8diGjunUCiwYMECZGRkzP4VjyqVCmazGTqdLuFuaGAdBt/97nexefPmmG6SfhMMw6Crqwuvv/46Dh48GBaPRCJBQUEBdu/ejfXr1ydleE6sYEXEhv0cP348ZimzFApF1EK3OAtILpcjLS0NmZmZCSUg1lXd3NyMzZs3Y86cOXEpRyAQwLVr1/D73/8eb775Znjaxobn7Nu3Dw899NANEWEQbRQKBRobG8NhPydOnIhJ2I9MJoPZbI6KQ4mzgFhffnp6umDj0USpVOKJJ55AU1MTzGZzXMoQCoVgsVjw0ksv4a233sLIyAiAL6ZtBQUFeOaZZ9DU1BSXsiULCoUCy5YtA03T2L9/P06ePBn1U9BisThqufN4bb9KpdKEmrvLZDI8++yz4X2eeDEyMoKf/vSn+Nvf/jZtdJ47dy727duHhx9+OG5lSybkcjnq6+tx4MAB1NfXx8RGtC5H4C2gWGa/jBSKoqDT6fDzn/8cW7ZsicqikA+hUAjDw8N49tln8e6772J0dBShUAgikQi1tbV45plnwpHZhMiQy+WorKzEb37zGyxfvjyqU95AIBA1Tx+vb1QsFsc9aQTwhZALCwshFotx5MgRiESiiHoWsVjMWWhisfhr46WCwSAOHTqEw4cPY3R0NJw3QqPRID09HRMTE/j73/+e0Pkk2NPGiXTimKIoMAyDBQsWoKWlBX6/Pyojh9/vn7alIAReAqIoKiEO1jEMg2vXruHVV19FKBSK+J/Lp6F80zOhUAgDAwNwOBzTROJyudDS0oJr165xKl88SDTxsFAUBa/XG9WDeF6vF93d3bwTyl8PbwElQirXYDCIsbGxhL1u0ufzYWhoiNwnm2B4vV5cunQJHo8HCoVCkIh4qYDNEUcgJCM+nw+XL19GX1+fYA8f72vu7Xa7IMMEQjTgMy0OBAIYHR3Fp59+Kuh6R4DnFM7tdqO/v5+XQZFIBKVSCbVanZChQITkIBQKQaFQ8PZs+v1+fPjhh1i1apWggFLO1hmGgd1uR09PDy+DCoUCt956K1JTU8PXBRIIXGEYBsXFxbyj2H0+H44ePQqr1YqUlJTYp7VimZycRFdXF/r6+ngZTE1Nxf79+xEMBhPaK0VIfEQiEe+GHwgE0N3djTNnziAzM5N3XCJn61arFZ999pmgZIEkDowQayJxy4dCIbzzzju4/fbbeQuIkxMhFAqhr68PJ06c4GWMQEg0PvzwQ3R0dPDeZ+IkIIvFgjNnzqCzs5OXMQIh0RgfH8f777/Pe6+Ok4A6Oztx9OjRiKZvibqzTSBcTzAYxOHDh3Hx4kVe96RGvAayWq04ffo0WlpaIvq8xWLB22+/jatXrxJnAWHWoCgKdrsdQ0NDEcce9vb24j//+Q9KS0s5H8KMWEAXLlzAsWPHYLPZIvq8zWbDsWPH0NLSQgREmDXYAFSbzRZxu/P7/fj3v/+N2267Dbm5uZxy1UUkoLGxMZw4cQJnz57lVCiHwwGHwxFxYQiEeNHV1YVTp06hoqKCUwaniNZA586dw6lTp6alZCIQbiQ8Hg9OnDiB9vZ2TvFxMwrI7Xbj5MmTaG9vJ1Mxwg1NR0cH2traOF3fM6OA+vv7ce7cORKST7jhcTgc6Ozs5BRlM6OAOjs70d/fTwI/CTcFQ0NDGBwcjPjzMwpoYGDghriRjkCIBJfLxSkqYUYBfVMuAALhRkOv18NgMET8+RmVUVRUlFS3QxMIfKFpGuXl5Zw2U2fcB6qsrERdXR06OjpgtVoFFXAmxGIxUlJSkJmZiezsbJhMJhgMBqhUqnDYeigUQiAQgM/ng8fjgcvlgtPphMPhgN1uh81mg91ux9TUVNSyuEQDkUgEmqah0WhgNBqh1+uh1+uRkpICtVoNmqYhk8kglUrDGXLYRCQMw8Dn88HtdsPlcmFiYuJL9XW5XFFPQCgEsVgMpVIJnU4Xrq9Op0NKSgpUKvKnaSYAAAUPSURBVBVomoZUKoVUKg2HfAUCAbjdbjgcDgwPD2NwcBADAwOw2WyzUrclS5Zg+fLlnJKGziggnU6HdevWwWKx4J133ol65nyappGTk4Py8nIsWLAAxcXFyMrKCl9oLJfLw40KQLhRBQIBBAIBMAwDv98Pr9cLr9cLp9MJu92OkZERDA8PY2BgAH19fRgYGIDVasXk5GRMHSKsUAwGAzIyMpCdnQ2z2Yzs7Gykp6fDaDRCq9VCoVBALpdDJpNBIpFAIpFMmy6zjSoUCiEYDCIYDIJhmGn19Xg8mJychM1mw8jICCwWC/r6+tDX14ehoSGMjo7C5XLFtL5sijOj0QiTyYScnByYzWZkZWUhLS0NBoMBKSkp4Q7i+vqKRKJp9WXryHYWk5OTGBkZwdWrV9He3o7W1lZcuXIFTqcz6h3jokWL0NzcjLq6Ok4Zp2YUkEgkQkVFBZqamiCVSnHo0CHBLm2RSITMzEwsWLAACxcuRFlZGQoKCpCVlYXU1FQoFAre6y52dHK5XJicnMT4+DhsNhtsNhusVissFgvGxsYwOjqKsbExjI+Pw+l0wuVywev1gmEYBAKB8IE/9otiMxGJxWJIJBJIpVIoFAqoVCpoNBro9XqkpqaGhZORkTFtpNHpdFCpVOFjyNEItGU7Ejbt08TEBOx2O+x2O8bGxjA8PAyr1Rqu69jYGCYmJuB0OuF2u+Hz+cId0fX1ZQOBKYoKC1smk4GmaajVamg0GhgMBhiNRqSmpiI9PT08W9DpdDAYDNBoNFCpVGHB8KlvKBSCz+eDw+HA0NAQent70d7ejrNnz6K1tRW9vb2Cc2crFAqsWLECmzZtwvLly6HX6zk9T4UilLLb7UZbWxveffddHDp0CBcuXOBceJlMhqKiIlRWVqKmpgaVlZUoLS1Fenp6zA/ZBYNBeL1eTExMhBuaw+GA0+nE1NQU3G43PB4PfD4ffD4fGIaZFoxIURTEYjGkUilkMhnkcjlomoZSqYRKpYJWq4VOp4NWqw03nmgJhQ+BQGBaJ8KGVbGdBVtfv98Pv9//pfqynQVbX4VCAZqmQdM0UlJSvlRfpVIZ86szg8EgbDYburu7ce7cObS0tKC1tRWXLl3iHDImFouRl5eHxsZGrFu3DvX19bwO1UUsILYCg4OD+Oijj3D48GG0tLSgp6cHHo/na4dUqVQKvV6P/Px8zJ8/Hw0NDWhoaEBRUVFCZDdluX5ayPbI/ysgVkT/O91KRti11f+OQCzXj7hsnRPpeIrX60Vvby8+++wznDlzBq2treju7sbw8PDXZtphr5Y0mUwoLy/H8uXLsWbNGuTm5vJOFMpJQCw+nw/Xrl3DkSNHcOzYMfT09GBsbCw832bXAVqtFpmZmZg3bx7q6+uxaNEimEymuFzyS7gxYUelc+fO4fjx42htbcXg4GDYscIwDMRiMWiahk6nQ25uLmpqanDnnXeiurpacL5yXgJiCYVCGBsbw/nz59HR0YHBwUG43W5IpVKkpaWhqKgI8+fPR15eHuRyuaCCEggzEQgEMDw8jPb2dnR2dsJiscDj8UAqlSI9PR2lpaUoKyuD2WyOWicuSEAEws1O8k7iCYQEgAiIQBAAERCBIAAiIAJBAERABIIAiIAIBAEQAREIAiACIhAEQAREIAiACIhAEAAREIEgACIgAkEAREAEggCIgAgEARABEQgCIAIiEARABEQgCIAIiEAQABEQgSCA/wdgfXTCbd0E+gAAAABJRU5ErkJggg==;" vertex="1" parent="Dx7y4EGR-CTOSj1UD8kM-45">
          <mxGeometry x="405.27" y="98" width="86.47" height="74" as="geometry" />
        </mxCell>
        <mxCell id="8YiQ8sACHnzhZr1-1O1K-33" value="" style="shape=image;verticalLabelPosition=bottom;labelBackgroundColor=#ffffff;verticalAlign=top;aspect=fixed;imageAspect=0;image=data:image/png,iVBORw0KGgoAAAANSUhEUgAAAG0AAAAdCAYAAACg2uKXAAACGklEQVRoge3Yv6t5cRzH8dfxKw4GMjgGZeSeJBP5UcpwJGUw2P0NNguDQQb/hf/BH6BsFgwmRwo5DAb51efO30Jcl3s/3/t+lOmc3r3rWZ+Tj8AYYyBc0f30AuRxFI1DFI1DFI1DFI1DFI1Dhp9e4H/HGMP5fAZjDAaDAYIgPD2Tor2YpmnodruYTCYoFAqQJOnpmXQ8vhhjDOPxGNVqFZlMBs1mE9PpFOfz+cszKdobHA4HaJqGwWCAVquFfD6PRqOB4XCI/X7/8Dw6Ht/odDphNpthNpthvV6j0+kgnU5DURT4/X6IonjXHOHW3WOtVsN8Pv+2pf+i3W6H0WiEXq938bnP54Pf70c8HkcqlYIsy7DZbDdn3owWCAQwGo2e25rcxev1IhwOIxqNIpFIQJZl2O32i+/S8fhLqKoKVVXR7/ex3W4hSRJF++2sViu8Xi+CwSA8Hg+MRuPVd29GC4VCcDgc377gX3I8HrFYLKCq6sXnoihCkiTIsoxcLodsNgu32317KCMvtVwuWb1eZwD++ZnNZuZ2u5miKKzdbrPVanX3TDoe30gQBOj1ephMJkQiEZTLZcRisavfrmso2htZLBYkk0lUKhUEg0GIogid7vH7DYr2Bi6XC8ViEaVSCR8fH3A6nTCZTF++PL75P40873g8YrPZYLvdwuPxwGKxPD2TonGILow5RNE4RNE4RNE4RNE4RNE49An1JjI//auTNwAAAABJRU5ErkJggg==;flipH=1;" vertex="1" parent="Dx7y4EGR-CTOSj1UD8kM-45">
          <mxGeometry x="365" y="240" width="167" height="44.43" as="geometry" />
        </mxCell>
      </root>
    </mxGraphModel>
  </diagram>
</mxfile>
